<?xml version="1.0" encoding="UTF-8" standalone="no"?>
<svg
   xmlns:dc="http://purl.org/dc/elements/1.1/"
   xmlns:cc="http://creativecommons.org/ns#"
   xmlns:rdf="http://www.w3.org/1999/02/22-rdf-syntax-ns#"
   xmlns:svg="http://www.w3.org/2000/svg"
   xmlns="http://www.w3.org/2000/svg"
   id="svg2158"
   version="1.1"
   viewBox="0 0 361.14395 116.25141"
   height="116.25141mm"
   width="361.14395mm">
  <defs
     id="defs2152">
    <clipPath
       id="clipPath364"
       clipPathUnits="userSpaceOnUse">
      <path
         id="path362"
         d="m 95.68,694.148 0.138,-2.421 c 0.013,-0.24 0.146,-0.458 0.353,-0.58 v 0 l 3.359,-1.985 c 0.439,-0.26 1.002,0.007 1.08,0.512 v 0 l 0.551,3.546 c 0.031,0.201 -0.024,0.406 -0.152,0.565 v 0 l -1.789,2.21 z" />
    </clipPath>
    <clipPath
       id="clipPath344"
       clipPathUnits="userSpaceOnUse">
      <path
         id="path342"
         d="m 91.682,692.159 0.138,-2.422 c 0.013,-0.24 0.146,-0.458 0.353,-0.58 v 0 l 3.358,-1.985 c 0.44,-0.26 1.003,0.007 1.081,0.511 v 0 l 0.551,3.547 c 0.031,0.2 -0.024,0.406 -0.152,0.564 v 0 l -1.789,2.21 z" />
    </clipPath>
    <clipPath
       id="clipPath328"
       clipPathUnits="userSpaceOnUse">
      <path
         id="path326"
         d="M 0,841.89 H 595.28 V 0 H 0 Z" />
    </clipPath>
    <clipPath
       id="clipPath308"
       clipPathUnits="userSpaceOnUse">
      <path
         id="path306"
         d="m 95.396,689.705 0.138,-2.421 c 0.014,-0.24 0.147,-0.458 0.354,-0.58 v 0 l 3.358,-1.985 c 0.44,-0.26 1.002,0.006 1.081,0.51 v 0 l 0.55,3.547 c 0.032,0.202 -0.024,0.407 -0.152,0.565 v 0 l -1.789,2.211 z" />
    </clipPath>
    <clipPath
       id="clipPath288"
       clipPathUnits="userSpaceOnUse">
      <path
         id="path286"
         d="M 0,841.89 H 595.28 V 0 H 0 Z" />
    </clipPath>
    <clipPath
       id="clipPath268"
       clipPathUnits="userSpaceOnUse">
      <path
         id="path266"
         d="m 150.073,698.198 -2.334,-1.509 c -0.14,-0.07 -0.243,-0.196 -0.285,-0.347 v 0 l -0.097,-3.119 c -0.03,-0.225 0.084,-0.444 0.284,-0.551 v 0 l 0.597,-0.315 c 0.17,-0.091 0.375,-0.083 0.538,0.017 v 0 l 2.284,1.655 c 0.144,0.116 0.219,0.296 0.203,0.48 v 0 l -0.388,3.245 c -0.027,0.299 -0.279,0.504 -0.552,0.504 v 0 c -0.083,0 -0.168,-0.018 -0.25,-0.06" />
    </clipPath>
    <clipPath
       id="clipPath248"
       clipPathUnits="userSpaceOnUse">
      <path
         id="path246"
         d="m 147.2,717.013 -1.017,-2.587 c -0.072,-0.139 -0.082,-0.301 -0.027,-0.448 v 0 l 1.738,-2.59 c 0.107,-0.201 0.328,-0.313 0.553,-0.283 v 0 l 0.669,0.092 c 0.19,0.026 0.352,0.151 0.427,0.329 v 0 l 0.89,2.674 c 0.049,0.179 0.006,0.369 -0.115,0.509 v 0 l -2.207,2.41 c -0.112,0.13 -0.265,0.192 -0.418,0.192 v 0 c -0.196,0 -0.391,-0.103 -0.493,-0.298" />
    </clipPath>
    <clipPath
       id="clipPath236"
       clipPathUnits="userSpaceOnUse">
      <path
         id="path234"
         d="M 0,841.89 H 595.28 V 0 H 0 Z" />
    </clipPath>
    <clipPath
       id="clipPath216"
       clipPathUnits="userSpaceOnUse">
      <path
         id="path214"
         d="m 134.034,681.039 -2.737,-3.008 c -0.219,-0.198 -0.293,-0.512 -0.184,-0.787 v 0 l 0.324,-0.818 c 0.093,-0.233 0.301,-0.4 0.549,-0.439 v 0 l 3.664,-0.293 c 0.24,-0.006 0.469,0.108 0.607,0.304 v 0 l 2.363,3.544 c 0.296,0.417 0.078,1 -0.419,1.12 v 0 l -3.591,0.481 c -0.056,0.014 -0.114,0.021 -0.171,0.021 v 0 c -0.143,0 -0.284,-0.043 -0.405,-0.125" />
    </clipPath>
    <clipPath
       id="clipPath196"
       clipPathUnits="userSpaceOnUse">
      <path
         id="path194"
         d="m 123.801,674.175 -3.74,-1.598 c -0.283,-0.088 -0.48,-0.344 -0.495,-0.639 v 0 l -0.046,-0.879 c -0.013,-0.25 0.108,-0.489 0.317,-0.627 v 0 l 3.21,-1.791 c 0.216,-0.105 0.471,-0.097 0.68,0.024 v 0 l 3.622,2.241 c 0.442,0.255 0.486,0.876 0.085,1.192 v 0 l -3.066,1.932 c -0.128,0.101 -0.286,0.155 -0.447,0.155 v 0 c -0.04,0 -0.08,-0.003 -0.12,-0.01" />
    </clipPath>
    <clipPath
       id="clipPath184"
       clipPathUnits="userSpaceOnUse">
      <path
         id="path182"
         d="M 0,841.89 H 595.28 V 0 H 0 Z" />
    </clipPath>
    <clipPath
       id="clipPath164"
       clipPathUnits="userSpaceOnUse">
      <path
         id="path162"
         d="m 117.069,674.317 -3.871,-1.246 c -0.289,-0.062 -0.51,-0.298 -0.552,-0.59 v 0 l -0.127,-0.871 c -0.036,-0.249 0.062,-0.497 0.257,-0.654 v 0 l 3.032,-2.079 c 0.205,-0.125 0.459,-0.14 0.678,-0.039 v 0 l 3.814,1.897 c 0.464,0.213 0.566,0.828 0.195,1.179 v 0 l -2.875,2.207 c -0.134,0.128 -0.312,0.198 -0.496,0.198 v 0 c -0.018,0 -0.037,-10e-4 -0.055,-0.002" />
    </clipPath>
    <clipPath
       id="clipPath144"
       clipPathUnits="userSpaceOnUse">
      <path
         id="path142"
         d="m 125.706,679.868 -3.444,-1.22 c -0.259,-0.063 -0.451,-0.28 -0.48,-0.545 v 0 l -0.091,-0.785 c -0.026,-0.224 0.068,-0.444 0.247,-0.58 v 0 l 2.778,-1.787 c 0.187,-0.108 0.416,-0.115 0.61,-0.019 v 0 l 3.375,1.804 c 0.41,0.204 0.486,0.758 0.144,1.064 v 0 l -2.639,1.906 c -0.12,0.107 -0.274,0.166 -0.433,0.166 v 0 c -0.022,0 -0.045,-0.002 -0.067,-0.004" />
    </clipPath>
    <clipPath
       id="clipPath120"
       clipPathUnits="userSpaceOnUse">
      <path
         id="path118"
         d="M 0,841.89 H 595.28 V 0 H 0 Z" />
    </clipPath>
    <clipPath
       id="clipPath100"
       clipPathUnits="userSpaceOnUse">
      <path
         id="path98"
         d="m 99.435,688.02 0.522,-2.368 c 0.052,-0.235 0.217,-0.429 0.442,-0.516 v 0 l 3.632,-1.424 c 0.475,-0.186 0.988,0.166 0.985,0.677 v 0 l -0.022,3.589 c -0.002,0.203 -0.089,0.398 -0.24,0.534 v 0 l -2.119,1.896 z" />
    </clipPath>
    <clipPath
       id="clipPath80"
       clipPathUnits="userSpaceOnUse">
      <path
         id="path78"
         d="m 94.288,685.812 0.138,-2.421 c 0.014,-0.241 0.146,-0.458 0.353,-0.581 v 0 l 3.359,-1.984 c 0.439,-0.26 1.002,0.006 1.081,0.51 v 0 l 0.551,3.547 c 0.03,0.201 -0.025,0.407 -0.153,0.565 v 0 l -1.789,2.211 z" />
    </clipPath>
    <clipPath
       id="clipPath60"
       clipPathUnits="userSpaceOnUse">
      <path
         id="path58"
         d="M 0,841.89 H 595.28 V 0 H 0 Z" />
    </clipPath>
    <clipPath
       id="clipPath40"
       clipPathUnits="userSpaceOnUse">
      <path
         id="path38"
         d="m 105.004,676.248 -0.434,-0.766 c -0.123,-0.217 -0.121,-0.485 0.004,-0.702 v 0 l 2.072,-3.035 c 0.145,-0.192 0.377,-0.298 0.617,-0.284 v 0 l 4.243,0.386 c 0.509,0.031 0.827,0.566 0.609,1.028 v 0 l -1.88,3.099 c -0.087,0.184 -0.248,0.324 -0.442,0.382 v 0 l -4.06,0.243 c -0.038,0.006 -0.075,0.009 -0.113,0.009 v 0 c -0.252,0 -0.489,-0.135 -0.616,-0.36" />
    </clipPath>
    <clipPath
       id="clipPath20"
       clipPathUnits="userSpaceOnUse">
      <path
         id="path18"
         d="m 100.899,681.049 -0.49,-0.732 c -0.138,-0.208 -0.157,-0.474 -0.049,-0.7 v 0 l 1.839,-3.182 c 0.13,-0.202 0.353,-0.325 0.595,-0.329 v 0 l 4.258,0.067 c 0.512,-0.008 0.868,0.503 0.685,0.979 v 0 l -1.641,3.231 c -0.073,0.191 -0.224,0.341 -0.414,0.415 v 0 l -4.03,0.546 c -0.054,0.013 -0.11,0.019 -0.164,0.019 v 0 c -0.233,0 -0.456,-0.114 -0.589,-0.314" />
    </clipPath>
  </defs>
  <metadata
     id="metadata2155">
    <rdf:RDF>
      <cc:Work
         rdf:about="">
        <dc:format>image/svg+xml</dc:format>
        <dc:type
           rdf:resource="http://purl.org/dc/dcmitype/StillImage" />
        <dc:title></dc:title>
      </cc:Work>
    </rdf:RDF>
  </metadata>
  <g
     transform="translate(-80.410313,-124.47416)"
     id="layer1">
    <g
       transform="translate(3.971444,-7.5000051)"
       id="g1122">
      <g
         transform="matrix(1.4248975,0,0,-1.4248975,-46.713711,1193.3662)"
         id="g14">
        <g
           id="g16"
           clip-path="url(#clipPath20)">
          <g
             id="g22"
             transform="translate(100.2515,677.7574)" />
          <g
             id="g26"
             transform="translate(100.2515,678.4612)" />
          <g
             id="g30"
             transform="translate(107.2526,681.4129)">
            <path
               id="path32"
               style="fill:#1e1d52;fill-opacity:1;fill-rule:nonzero;stroke:none"
               d="M 0,0 -7.001,-2.952 V 0 Z M -7.0011,-2.9517 -1e-4,3e-4 h 0.667 v -0.423 l -7.668,-3.233 z m 0,-0.7038 7.668,3.233 v -4.884 h -7.668 z" />
          </g>
        </g>
      </g>
      <g
         transform="matrix(1.4248975,0,0,-1.4248975,-46.713711,1193.3662)"
         id="g34">
        <g
           id="g36"
           clip-path="url(#clipPath40)">
          <g
             id="g42"
             transform="translate(104.4472,672.8371)" />
          <g
             id="g46"
             transform="translate(104.4472,673.566)" />
          <g
             id="g50"
             transform="translate(110.4519,676.6463)">
            <path
               id="path52"
               style="fill:#1e1d52;fill-opacity:1;fill-rule:nonzero;stroke:none"
               d="M 0,0 -6.005,-3.08 V 0 Z m -6.0047,-3.0803 6.005,3.08 h 1.421 l -7.426,-3.809 z m 0,-0.7289 7.426,3.809 h 0.459 v -5.199 h -7.885 z" />
          </g>
        </g>
      </g>
      <g
         transform="matrix(1.4248975,0,0,-1.4248975,-46.713711,1193.3662)"
         id="g54">
        <g
           id="g56"
           clip-path="url(#clipPath60)">
          <g
             id="g62"
             transform="translate(101.2125,685.0943)">
            <path
               d="m 0,0 1.184,-4.319 c 0.087,-0.225 0.28,-0.391 0.515,-0.444 l 3.807,-0.851 c 0.498,-0.112 0.951,0.315 0.87,0.819 L 5.103,-0.747 C 5.071,-0.546 4.955,-0.368 4.784,-0.256 L 3.103,0.79"
               style="fill:#14499e;fill-opacity:1;fill-rule:nonzero;stroke:none"
               id="path64" />
          </g>
          <g
             id="g66"
             transform="translate(103.0869,683.9007)">
            <path
               d="M 0,0 C 0.169,-0.114 0.282,-0.294 0.311,-0.496 L 0.823,-4.048 C 0.896,-4.553 0.436,-4.972 -0.061,-4.853 l -3.792,0.914 c -0.234,0.057 -0.425,0.226 -0.508,0.452 l -0.886,3.864 c -0.056,0.244 0.022,0.5 0.203,0.672 l 0.639,0.605 c 0.215,0.204 0.534,0.252 0.8,0.122 z"
               style="fill:#57a0d7;fill-opacity:1;fill-rule:nonzero;stroke:none"
               id="path68" />
          </g>
          <g
             id="g70"
             transform="translate(113.0283,683.4741)">
            <path
               d="M 0,0 C 0.186,-0.083 0.329,-0.24 0.393,-0.433 L 1.52,-3.841 C 1.681,-4.325 1.301,-4.819 0.791,-4.788 l -3.893,0.234 c -0.241,0.015 -0.458,0.148 -0.58,0.356 l -1.267,3.963 c -0.098,0.23 -0.067,0.496 0.082,0.697 l 0.24,0.394 c 0.176,0.238 0.482,0.342 0.766,0.26 z"
               style="fill:#14499e;fill-opacity:1;fill-rule:nonzero;stroke:none"
               id="path72" />
          </g>
        </g>
      </g>
      <g
         transform="matrix(1.4248975,0,0,-1.4248975,-46.713711,1193.3662)"
         id="g74">
        <g
           id="g76"
           clip-path="url(#clipPath80)">
          <g
             id="g82"
             transform="translate(94.2882,685.2736)" />
          <g
             id="g86"
             transform="translate(94.2882,685.9033)" />
          <g
             id="g90"
             transform="translate(99.8005,685.2347)">
            <path
               id="path92"
               style="fill:#1e1d52;fill-opacity:1;fill-rule:nonzero;stroke:none"
               d="M 0,0 -5.512,0.669 V 2.423 H 0 Z M -5.5123,0.6686 -3e-4,-4e-4 v -0.629 l -5.512,0.668 z m 0,-0.6297 5.512,-0.669 v -4.039 h -5.512 z" />
          </g>
        </g>
      </g>
      <g
         transform="matrix(1.4248975,0,0,-1.4248975,-46.713711,1193.3662)"
         id="g94">
        <g
           id="g96"
           clip-path="url(#clipPath100)">
          <g
             id="g102"
             transform="translate(99.4348,687.4858)" />
          <g
             id="g106"
             transform="translate(99.4348,688.1115)" />
          <g
             id="g110"
             transform="translate(105.0192,688.3323)">
            <path
               id="path112"
               style="fill:#1e1d52;fill-opacity:1;fill-rule:nonzero;stroke:none"
               d="M 0,0 -5.584,-0.221 V 2.076 H 0 Z M -5.5844,-0.2208 -4e-4,2e-4 v -0.626 l -5.584,-0.221 z m 0,-0.6257 5.584,0.221 v -4.181 h -5.584 z" />
          </g>
        </g>
      </g>
      <g
         transform="matrix(1.4248975,0,0,-1.4248975,-46.713711,1193.3662)"
         id="g114">
        <g
           id="g116"
           clip-path="url(#clipPath120)">
          <g
             id="g122"
             transform="translate(113.1045,677.6015)">
            <path
               d="M 0,0 C 0.202,-0.03 0.381,-0.143 0.494,-0.313 L 2.812,-3.099 C 3.095,-3.524 2.861,-4.1 2.362,-4.207 l -4.139,-1.009 c -0.235,-0.05 -0.48,0.021 -0.653,0.189 l -2.498,2.696 c -0.156,0.196 -0.197,0.46 -0.107,0.694 l 0.315,0.822 c 0.106,0.276 0.373,0.457 0.669,0.454 z"
               style="fill:#14499e;fill-opacity:1;fill-rule:nonzero;stroke:none"
               id="path124" />
          </g>
          <g
             id="g126"
             transform="translate(142.1549,687.4231)">
            <path
               d="M 0,0 C 0.13,0.144 0.315,0.226 0.509,0.226 L 3.938,0.59 c 0.486,0 0.819,-0.49 0.639,-0.941 L 3.191,-4.16 C 3.107,-4.373 2.921,-4.53 2.697,-4.578 l -3.453,-0.555 c -0.238,-0.019 -0.468,0.088 -0.606,0.282 l -0.484,0.684 c -0.163,0.23 -0.166,0.537 -0.007,0.769 z"
               style="fill:#14499e;fill-opacity:1;fill-rule:nonzero;stroke:none"
               id="path128" />
          </g>
          <g
             id="g130"
             transform="translate(149.1273,688.5526)">
            <path
               d="M 0,0 C 0.051,0.161 0.168,0.294 0.322,0.364 L 2.91,1.897 C 3.295,2.074 3.737,1.806 3.759,1.383 l 0.283,-3.525 c 0.01,-0.2 -0.08,-0.392 -0.241,-0.511 L 1.263,-4.346 C 1.082,-4.448 0.86,-4.447 0.68,-4.343 l -0.632,0.367 c -0.213,0.123 -0.326,0.366 -0.285,0.608 z"
               style="fill:#14499e;fill-opacity:1;fill-rule:nonzero;stroke:none"
               id="path132" />
          </g>
          <g
             id="g134"
             transform="translate(141.9178,679.0952)">
            <path
               d="M 0,0 C 0.098,0.138 0.25,0.227 0.419,0.246 L 3.355,0.902 C 3.776,0.951 4.113,0.56 4.002,0.15 L 3.179,-3.289 C 3.127,-3.482 2.982,-3.636 2.793,-3.7 l -2.939,-0.824 c -0.203,-0.041 -0.414,0.029 -0.552,0.184 l -0.488,0.545 c -0.164,0.183 -0.197,0.449 -0.082,0.666 z"
               style="fill:#14499e;fill-opacity:1;fill-rule:nonzero;stroke:none"
               id="path136" />
          </g>
        </g>
      </g>
      <g
         transform="matrix(1.4248975,0,0,-1.4248975,-46.713711,1193.3662)"
         id="g138">
        <g
           id="g140"
           clip-path="url(#clipPath144)">
          <g
             id="g146"
             transform="translate(122.3061,674.8364)" />
          <g
             id="g150"
             transform="translate(121.665,674.9781)" />
          <g
             id="g154"
             transform="translate(125.7723,679.8871)">
            <path
               id="path156"
               style="fill:#1e1d52;fill-opacity:1;fill-rule:nonzero;stroke:none"
               d="M 0,0 -4.107,-4.909 V 0 Z M -4.1073,-4.909 -3e-4,0 h 0.76 l -4.226,-5.051 h -0.641 z m 0.6411,-0.1417 4.226,5.051 h 2.655 v -5.051 z" />
          </g>
        </g>
      </g>
      <g
         transform="matrix(1.4248975,0,0,-1.4248975,-46.713711,1193.3662)"
         id="g158">
        <g
           id="g160"
           clip-path="url(#clipPath164)">
          <g
             id="g166"
             transform="translate(113.0416,668.737)" />
          <g
             id="g170"
             transform="translate(112.4833,669.085)" />
          <g
             id="g174"
             transform="translate(117.1407,674.3321)">
            <path
               id="path176"
               style="fill:#1e1d52;fill-opacity:1;fill-rule:nonzero;stroke:none"
               d="M 0,0 -4.657,-5.247 V 0 Z m -4.6574,-5.2471 4.657,5.247 h 0.867 l -4.966,-5.595 h -0.558 z m 0.5583,-0.348 4.966,5.595 h 2.776 l 0.082,-0.073 v -5.522 z" />
          </g>
        </g>
      </g>
      <g
         transform="matrix(1.4248975,0,0,-1.4248975,-46.713711,1193.3662)"
         id="g178">
        <g
           id="g180"
           clip-path="url(#clipPath184)">
          <g
             id="g186"
             transform="translate(131.6322,675.2911)">
            <path
               d="M 0,0 C 0.173,0.108 0.383,0.138 0.579,0.082 L 4.15,-0.536 c 0.491,-0.139 0.687,-0.73 0.376,-1.135 L 2.029,-5.123 C 1.883,-5.313 1.65,-5.419 1.41,-5.403 l -3.65,0.433 c -0.246,0.048 -0.448,0.222 -0.531,0.459 l -0.293,0.83 c -0.099,0.279 -0.013,0.59 0.215,0.78 z"
               style="fill:#57a0d7;fill-opacity:1;fill-rule:nonzero;stroke:none"
               id="path188" />
          </g>
        </g>
      </g>
      <g
         transform="matrix(1.4248975,0,0,-1.4248975,-46.713711,1193.3662)"
         id="g190">
        <g
           id="g192"
           clip-path="url(#clipPath196)">
          <g
             id="g198"
             transform="translate(120.518,668.5358)" />
          <g
             id="g202"
             transform="translate(119.7133,668.5358)" />
          <g
             id="g206"
             transform="translate(123.8797,674.2085)">
            <path
               id="path208"
               style="fill:#1e1d52;fill-opacity:1;fill-rule:nonzero;stroke:none"
               d="M 0,0 -4.166,-5.673 H -4.372 V 0 Z M -4.1664,-5.6727 -4e-4,3e-4 h 0.805 l -4.166,-5.673 z m 0.8047,0 4.166,5.673 h 3.151 v -5.673 z" />
          </g>
        </g>
      </g>
      <g
         transform="matrix(1.4248975,0,0,-1.4248975,-46.713711,1193.3662)"
         id="g210">
        <g
           id="g212"
           clip-path="url(#clipPath216)">
          <g
             id="g218"
             transform="translate(133.6307,675.6878)">
            <path
               style="fill:#1e1d52;fill-opacity:1;fill-rule:nonzero;stroke:none"
               d="m -1.9589844,0.40625 c -0.4997158,1.6309863 -0.308835,3.5025135 0.701691,4.9041445 C 0.03372218,7.1365942 2.4042487,8.2127894 4.625507,7.7983195 5.9394475,7.5674175 7.0678035,6.5298703 7.3633016,5.2236581 7.7662667,3.6708224 8.0732644,1.9753841 7.5193557,0.41924293 7.0835939,-0.83679187 5.8764066,-1.6428219 4.62743,-1.9435005 2.5815414,-2.45286 0.44779921,-2.2728208 -1.6284941,-2.087494 c -0.2474546,0.1119984 -0.9666476,-0.1146759 -0.7812689,0.3158641 0.1502595,0.72596 0.3005191,1.45191994 0.4507786,2.1778799 z"
               id="path220" />
          </g>
          <g
             id="g222"
             transform="translate(132.9684,675.6878)">
            <path
               style="fill:#1e1d52;fill-opacity:1;fill-rule:nonzero;stroke:none"
               d="m 0,0 c 0.38066667,1.8346667 0.76133333,3.6693333 1.142,5.504 0.2206667,0 0.4413333,0 0.662,0 C 1.4233333,3.6693333 1.0426667,1.8346667 0.662,0 0.44133333,0 0.22066667,0 0,0 Z"
               id="path224" />
          </g>
          <g
             id="g226"
             transform="translate(134.11,681.1917)">
            <path
               style="fill:#1e1d52;fill-opacity:1;fill-rule:nonzero;stroke:none"
               d="m 0,0 c -0.38066667,-1.8346667 -0.76133333,-3.6693333 -1.142,-5.504 -0.6546667,0 -1.3093333,0 -1.964,0 0,1.8346667 0,3.6693333 0,5.504 1.0353333,0 2.0706667,0 3.106,0 z"
               id="path228" />
          </g>
        </g>
      </g>
      <g
         transform="matrix(1.4248975,0,0,-1.4248975,-46.713711,1193.3662)"
         id="g230">
        <g
           id="g232"
           clip-path="url(#clipPath236)">
          <g
             id="g238"
             transform="translate(150.3904,705.9169)">
            <path
               d="m 0,0 c -0.032,0.153 0.002,0.312 0.093,0.439 l 1.386,2.41 c 0.23,0.317 0.707,0.303 0.916,-0.028 l 1.83,-2.708 c 0.099,-0.156 0.114,-0.351 0.039,-0.52 L 2.991,-2.923 C 2.892,-3.087 2.713,-3.187 2.521,-3.184 l -0.675,0.007 c -0.228,0.003 -0.429,0.146 -0.506,0.36 z"
               style="fill:#57a0d7;fill-opacity:1;fill-rule:nonzero;stroke:none"
               id="path240" />
          </g>
        </g>
      </g>
      <g
         transform="matrix(1.4248975,0,0,-1.4248975,-46.713711,1193.3662)"
         id="g242">
        <g
           id="g244"
           clip-path="url(#clipPath248)">
          <g
             id="g250"
             transform="translate(150.4819,712.4976)" />
          <g
             id="g254"
             transform="translate(150.4819,711.9462)" />
          <g
             id="g258"
             transform="translate(146.1009,714.0407)">
            <path
               id="path260"
               style="fill:#1e1d52;fill-opacity:1;fill-rule:nonzero;stroke:none"
               d="M 0,0 4.381,-2.095 V -2.966 H 0 Z M 4.381,-2.0945 0,5e-4 v 0.551 l 4.381,-2.095 z m 0,0.5514 L 0,0.5519 v 2.823 h 4.381 z" />
          </g>
        </g>
      </g>
      <g
         transform="matrix(1.4248975,0,0,-1.4248975,-46.713711,1193.3662)"
         id="g262">
        <g
           id="g264"
           clip-path="url(#clipPath268)">
          <g
             id="g270"
             transform="translate(150.2987,692.2668)" />
          <g
             id="g274"
             transform="translate(149.7311,692.2668)" />
          <g
             id="g278"
             transform="translate(147.3271,696.6424)">
            <path
               id="path280"
               style="fill:#1e1d52;fill-opacity:1;fill-rule:nonzero;stroke:none"
               d="M 0,0 2.404,-4.376 H 0 Z M 2.404,-4.3756 0,4e-4 v 1.033 l 2.972,-5.409 z m 0.5676,0 -2.972,5.409 v 0.699 h 3.953 v -6.108 z" />
          </g>
        </g>
      </g>
      <g
         id="g290"
         transform="matrix(1.4248975,0,0,-1.4248975,120.75804,226.31751)">
        <path
           d="M 0,0 C 0.203,-0.015 0.391,-0.115 0.516,-0.276 L 3.545,-3.343 C 3.859,-3.746 3.668,-4.338 3.177,-4.481 L -0.568,-5.57 c -0.231,-0.068 -0.481,-0.015 -0.665,0.139 l -2.688,2.915 c -0.17,0.184 -0.229,0.444 -0.157,0.684 l 0.254,0.843 c 0.085,0.283 0.338,0.484 0.634,0.502 z"
           style="fill:#57a0d7;fill-opacity:1;fill-rule:nonzero;stroke:none"
           id="path292" />
      </g>
      <g
         id="g294"
         transform="matrix(1.4248975,0,0,-1.4248975,92.203117,207.57969)">
        <path
           d="m 0,0 0.138,-2.421 c 0.013,-0.24 0.146,-0.458 0.353,-0.581 L 3.85,-4.986 c 0.439,-0.26 1.002,0.006 1.08,0.511 l 0.551,3.546 c 0.031,0.201 -0.024,0.407 -0.152,0.565 L 3.54,1.846"
           style="fill:#14499e;fill-opacity:1;fill-rule:nonzero;stroke:none"
           id="path296" />
      </g>
      <g
         id="g298"
         transform="matrix(1.4248975,0,0,-1.4248975,85.063358,211.25421)">
        <path
           id="path300"
           style="fill:#14499e;fill-opacity:1;fill-rule:nonzero;stroke:none"
           d="M 0,0 0.138,-2.421 C 0.151,-2.662 0.284,-2.879 0.491,-3.002 L 3.85,-4.986 c 0.439,-0.26 1.002,0.006 1.08,0.511 l 0.551,3.546 c 0.031,0.201 -0.024,0.407 -0.152,0.565 L 3.54,1.846" />
      </g>
      <g
         transform="matrix(1.4248975,0,0,-1.4248975,-46.713711,1193.3662)"
         id="g302">
        <g
           id="g304"
           clip-path="url(#clipPath308)">
          <g
             id="g310"
             transform="translate(99.4706,691.5515)" />
          <g
             id="g314"
             transform="translate(100.4266,691.5515)" />
          <g
             id="g318"
             transform="translate(99.2422,684.4592)">
            <path
               id="path320"
               style="fill:#2a337c;fill-opacity:1;fill-rule:nonzero;stroke:none"
               d="M 0,0 1.184,7.092 H 1.666 V 0 Z M 1.1844,7.0923 4e-4,3e-4 h -0.956 l 1.184,7.092 z m -0.956,0 -1.184,-7.092 h -2.89 v 7.092 z" />
          </g>
        </g>
      </g>
      <g
         transform="matrix(1.4248975,0,0,-1.4248975,-46.713711,1193.3662)"
         id="g322">
        <g
           id="g324"
           clip-path="url(#clipPath328)">
          <g
             id="g330"
             transform="translate(91.9497,689.4607)">
            <path
               d="m 0,0 c -2.558,5.992 -3.341,12.568 -2.263,19.02 2.377,14.238 13.52,25.5 27.727,28.022 0.358,0.07 4.243,0.799 7.391,0.553 l -0.771,-9.97 C 30.651,37.736 28.235,37.393 27.288,37.209 17.164,35.412 9.282,27.446 7.6,17.372 6.838,12.808 7.39,8.159 9.197,3.927 Z"
               style="fill:#201b54;fill-opacity:1;fill-rule:nonzero;stroke:none"
               id="path332" />
          </g>
          <g
             id="g334"
             transform="translate(120.1936,735.0033)">
            <path
               d="M 0,0 3.227,2.906 C 4.85,4.367 7.085,4.944 9.213,4.45 L 20.681,1.785 c 1.509,-0.35 2.574,-1.7 2.562,-3.25 l -0.026,-3.63 c -0.011,-1.457 -0.973,-2.736 -2.37,-3.151 l -10.794,-3.202 c -2.045,-0.607 -4.257,-0.201 -5.954,1.093 L 0.84,-7.871 Z"
               style="fill:#201b54;fill-opacity:1;fill-rule:nonzero;stroke:none"
               id="path336" />
          </g>
        </g>
      </g>
      <g
         transform="matrix(1.4248975,0,0,-1.4248975,-46.713711,1193.3662)"
         id="g338">
        <g
           id="g340"
           clip-path="url(#clipPath344)">
          <g
             id="g346"
             transform="translate(91.6817,691.6202)" />
          <g
             id="g350"
             transform="translate(91.6817,692.2499)" />
          <g
             id="g354"
             transform="translate(97.194,691.5813)">
            <path
               id="path356"
               style="fill:#1e1d52;fill-opacity:1;fill-rule:nonzero;stroke:none"
               d="M 0,0 -5.512,0.669 V 2.423 H 0 Z M -5.5123,0.6686 -3e-4,-4e-4 v -0.629 l -5.512,0.668 z m 0,-0.6297 5.512,-0.669 v -4.039 h -5.512 z" />
          </g>
        </g>
      </g>
      <g
         transform="matrix(1.4248975,0,0,-1.4248975,-46.713711,1193.3662)"
         id="g358">
        <g
           id="g360"
           clip-path="url(#clipPath364)">
          <g
             id="g366"
             transform="translate(95.68,693.6105)" />
          <g
             id="g370"
             transform="translate(95.68,694.2402)" />
          <g
             id="g374"
             transform="translate(101.1923,693.5716)">
            <path
               id="path376"
               style="fill:#1e1d52;fill-opacity:1;fill-rule:nonzero;stroke:none"
               d="M 0,0 -5.512,0.669 V 2.423 H 0 Z M -5.5123,0.6686 -3e-4,-4e-4 v -0.629 l -5.512,0.668 z m 0,-0.6297 5.512,-0.669 v -4.039 h -5.512 z" />
          </g>
        </g>
      </g>
      <g
         id="g386"
         transform="matrix(1.4248975,0,0,-1.4248975,92.776061,198.48413)">
        <path
           d="m 0,0 c 0.104,-0.175 0.13,-0.386 0.071,-0.581 l -1.046,-3.433 c -0.148,-0.488 -0.743,-0.672 -1.142,-0.353 l -3.044,2.438 c -0.188,0.151 -0.289,0.385 -0.268,0.625 l 1.251,3.968 c 0.053,0.245 0.232,0.443 0.469,0.522 l 0.424,0.183 c 0.281,0.093 0.591,10e-4 0.776,-0.23 z"
           style="fill:#14499e;fill-opacity:1;fill-rule:nonzero;stroke:none"
           id="path388" />
      </g>
      <g
         id="g390"
         transform="matrix(1.4248975,0,0,-1.4248975,88.824952,183.629)">
        <path
           d="m 0,0 c 0.026,-0.148 -0.012,-0.301 -0.105,-0.42 l -1.634,-2.093 c -0.232,-0.297 -0.692,-0.266 -0.882,0.06 l -1.455,2.492 c -0.09,0.154 -0.097,0.342 -0.019,0.502 l 1.918,2.408 c 0.101,0.155 0.277,0.244 0.462,0.236 l 0.342,0.013 c 0.219,-0.01 0.408,-0.156 0.474,-0.364 z"
           style="fill:#14499e;fill-opacity:1;fill-rule:nonzero;stroke:none"
           id="path392" />
      </g>
      <g
         id="g394"
         transform="matrix(1.4248975,0,0,-1.4248975,94.546066,179.1739)">
        <path
           d="m 0,0 c 0,-0.151 -0.064,-0.294 -0.176,-0.395 l -1.972,-1.778 c -0.281,-0.253 -0.728,-0.143 -0.859,0.211 l -1,2.707 c -0.062,0.167 -0.036,0.354 0.068,0.498 l 2.306,2.039 c 0.127,0.135 0.316,0.192 0.497,0.152 L -0.798,3.388 C -0.584,3.34 -0.423,3.164 -0.394,2.947 Z"
           style="fill:#14499e;fill-opacity:1;fill-rule:nonzero;stroke:none"
           id="path396" />
      </g>
      <g
         id="g398"
         transform="matrix(1.4248975,0,0,-1.4248975,150.48227,151.30518)">
        <path
           d="m 0,0 c -0.525,0 -0.966,0.41 -0.997,0.941 -0.033,0.552 0.388,1.025 0.939,1.057 L 9.77,2.575 13.457,4.297 C 13.956,4.53 14.553,4.315 14.786,3.815 15.02,3.314 14.804,2.719 14.304,2.486 L 10.442,0.682 C 10.328,0.628 10.204,0.597 10.078,0.589 L 0.06,0.002 C 0.04,0 0.02,0 0,0"
           style="fill:#201b54;fill-opacity:1;fill-rule:nonzero;stroke:none"
           id="path400" />
      </g>
      <g
         id="g402"
         transform="matrix(1.4248975,0,0,-1.4248975,170.2597,153.01819)">
        <path
           d="m 0,0 c -0.141,0 -0.284,0.03 -0.42,0.093 l -3.861,1.789 c -0.501,0.232 -0.72,0.827 -0.487,1.328 0.231,0.502 0.826,0.719 1.327,0.487 L 0.421,1.907 C 0.922,1.675 1.14,1.081 0.908,0.58 0.739,0.214 0.377,0 0,0"
           style="fill:#201b54;fill-opacity:1;fill-rule:nonzero;stroke:none"
           id="path404" />
      </g>
    </g>
    <g
       transform="matrix(2.5139588,0,0,-2.5139588,190.7998,163.56572)"
       id="g406">
      <path
         id="path408"
         style="fill:#201b54;fill-opacity:1;fill-rule:nonzero;stroke:none"
         d="m 0,0 h 3.787 l 3.225,-9.893 c 0.08,-0.244 0.162,-0.496 0.244,-0.756 0.08,-0.261 0.158,-0.517 0.232,-0.77 0.073,-0.252 0.137,-0.492 0.196,-0.721 0.056,-0.227 0.101,-0.415 0.132,-0.561 0.082,0.325 0.192,0.749 0.33,1.27 0.139,0.521 0.29,1.034 0.454,1.538 L 11.75,0 h 3.736 L 9.404,-17.098 H 6.082 L 0,0" />
    </g>
    <g
       transform="matrix(2.5139588,0,0,-2.5139588,232.18683,206.54843)"
       id="g410">
      <path
         id="path412"
         style="fill:#201b54;fill-opacity:1;fill-rule:nonzero;stroke:none"
         d="m 0,0 v 17.098 l 3.42,2.201 V 0 Z" />
    </g>
    <g
       transform="matrix(2.5139588,0,0,-2.5139588,271.05992,177.38018)"
       id="g414">
      <path
         id="path416"
         style="fill:#201b54;fill-opacity:1;fill-rule:nonzero;stroke:none"
         d="m 0,0 c 0,0.748 -0.225,1.298 -0.672,1.648 -0.449,0.35 -1.055,0.526 -1.82,0.526 h -3.932 v -4.397 h 3.981 C -0.814,-2.223 0,-1.482 0,0 M 3.516,0.073 C 3.516,-0.921 3.361,-1.772 3.053,-2.479 2.742,-3.188 2.311,-3.771 1.758,-4.226 1.205,-4.682 0.549,-5.016 -0.209,-5.228 -0.965,-5.44 -1.783,-5.545 -2.662,-5.545 h -3.762 v -6.058 h -3.42 V 5.495 h 7.475 c 0.797,0 1.555,-0.109 2.271,-0.329 C 0.617,4.945 1.244,4.607 1.783,4.152 2.32,3.696 2.742,3.13 3.053,2.454 3.361,1.778 3.516,0.984 3.516,0.073" />
    </g>
    <g
       transform="matrix(2.5139588,0,0,-2.5139588,281.92579,206.54843)"
       id="g418">
      <path
         id="path420"
         style="fill:#201b54;fill-opacity:1;fill-rule:nonzero;stroke:none"
         d="M 0,0 V 17.098 H 11.871 V 13.752 H 3.42 V 10.796 H 8.328 V 7.475 H 3.42 V 3.347 h 8.816 V 0 Z" />
    </g>
    <g
       transform="matrix(2.5139588,0,0,-2.5139588,341.67177,177.38018)"
       id="g422">
      <path
         id="path424"
         style="fill:#201b54;fill-opacity:1;fill-rule:nonzero;stroke:none"
         d="m 0,0 c 0,0.781 -0.215,1.339 -0.646,1.673 -0.432,0.333 -1.032,0.501 -1.795,0.501 h -4.471 v -4.397 h 4.471 C -0.814,-2.223 0,-1.482 0,0 m -0.414,-11.603 -3.055,6.156 h -3.443 v -6.156 h -3.42 V 5.495 h 7.963 c 0.799,0 1.555,-0.109 2.271,-0.329 C 0.619,4.945 1.246,4.607 1.783,4.152 2.32,3.696 2.744,3.13 3.053,2.454 3.363,1.778 3.518,0.984 3.518,0.073 3.518,-1.214 3.244,-2.269 2.699,-3.09 2.154,-3.913 1.336,-4.535 0.244,-4.959 l 3.274,-6.644 z" />
    </g>
    <g
       transform="matrix(2.5139588,0,0,-2.5139588,372.22812,184.29856)"
       id="g426">
      <path
         id="path428"
         style="fill:#14499e;fill-opacity:1;fill-rule:nonzero;stroke:none"
         d="m 0,0 c -0.54,0.73 -1.298,1.094 -2.275,1.091 -1.335,-0.006 -1.999,-1.1 -1.992,-3.281 0.006,-1.319 0.208,-2.271 0.611,-2.856 0.4,-0.584 0.934,-0.876 1.602,-0.874 0.522,0.002 0.937,0.102 1.245,0.299 0.308,0.196 0.584,0.458 0.828,0.785 z M 0.033,-8.817 0.03,-8.012 c -0.325,-0.278 -0.702,-0.527 -1.133,-0.749 -0.43,-0.222 -0.956,-0.334 -1.574,-0.336 -0.683,-0.003 -1.327,0.126 -1.93,0.383 -0.604,0.259 -1.135,0.668 -1.593,1.228 -0.458,0.559 -0.82,1.267 -1.082,2.121 -0.265,0.854 -0.4,1.884 -0.404,3.089 -0.003,0.961 0.104,1.839 0.32,2.638 0.217,0.799 0.536,1.489 0.957,2.069 0.421,0.579 0.94,1.028 1.558,1.349 0.618,0.32 1.326,0.481 2.123,0.484 0.57,0.002 1.088,-0.094 1.552,-0.287 0.465,-0.194 0.853,-0.429 1.163,-0.704 l -0.014,5.091 3.364,1.698 0.067,-18.867 z" />
    </g>
    <g
       transform="matrix(2.5139588,0,0,-2.5139588,400.97429,186.584)"
       id="g430">
      <path
         id="path432"
         style="fill:#14499e;fill-opacity:1;fill-rule:nonzero;stroke:none"
         d="M 0,0 C -0.033,0.293 -0.102,0.574 -0.2,0.842 -0.3,1.11 -0.443,1.354 -0.632,1.573 -0.821,1.792 -1.056,1.966 -1.335,2.096 -1.613,2.225 -1.94,2.288 -2.317,2.287 -2.939,2.285 -3.43,2.063 -3.789,1.622 -4.148,1.181 -4.358,0.634 -4.421,-0.017 Z M 3.278,-1.453 C 3.279,-1.697 3.276,-1.905 3.269,-2.076 3.261,-2.247 3.249,-2.397 3.234,-2.527 l -7.694,-0.03 c 0.033,-0.44 0.133,-0.814 0.297,-1.123 0.164,-0.309 0.368,-0.556 0.614,-0.743 0.245,-0.186 0.518,-0.324 0.819,-0.412 0.302,-0.089 0.607,-0.132 0.916,-0.131 0.473,0.002 0.896,0.085 1.27,0.25 0.373,0.163 0.683,0.384 0.925,0.662 l 2.402,-1.993 c -0.518,-0.67 -1.196,-1.185 -2.034,-1.547 -0.837,-0.36 -1.688,-0.544 -2.551,-0.547 -0.928,-0.004 -1.762,0.152 -2.502,0.467 -0.739,0.315 -1.369,0.76 -1.888,1.336 -0.52,0.576 -0.922,1.275 -1.208,2.096 -0.287,0.821 -0.432,1.736 -0.436,2.746 -0.003,0.977 0.141,1.878 0.431,2.701 0.29,0.823 0.69,1.533 1.201,2.13 0.51,0.596 1.11,1.058 1.802,1.387 0.69,0.328 1.442,0.494 2.256,0.497 C -1.299,5.222 -0.536,5.05 0.141,4.703 0.818,4.354 1.386,3.876 1.844,3.268 2.302,2.659 2.655,1.947 2.902,1.134 3.149,0.32 3.275,-0.541 3.278,-1.453" />
    </g>
    <g
       transform="matrix(2.5139588,0,0,-2.5139588,426.10157,206.26131)"
       id="g434">
      <path
         id="path436"
         style="fill:#14499e;fill-opacity:1;fill-rule:nonzero;stroke:none"
         d="m 0,0 -3.468,-0.014 -4.666,12.806 3.713,0.015 1.903,-5.929 c 0.164,-0.487 0.322,-1 0.47,-1.536 0.15,-0.538 0.265,-0.96 0.347,-1.27 0.081,0.326 0.192,0.75 0.338,1.273 0.144,0.52 0.297,1.034 0.458,1.539 l 1.858,5.943 3.614,0.014 z" />
    </g>
  </g>
</svg>
