<?xml version="1.0" encoding="UTF-8" standalone="no"?>
<!-- Created with Inkscape (http://www.inkscape.org/) -->

<svg
   xmlns:dc="http://purl.org/dc/elements/1.1/"
   xmlns:cc="http://creativecommons.org/ns#"
   xmlns:rdf="http://www.w3.org/1999/02/22-rdf-syntax-ns#"
   xmlns:svg="http://www.w3.org/2000/svg"
   xmlns="http://www.w3.org/2000/svg"
   xmlns:sodipodi="http://sodipodi.sourceforge.net/DTD/sodipodi-0.dtd"
   xmlns:inkscape="http://www.inkscape.org/namespaces/inkscape"
   version="1.1"
   id="svg2"
   xml:space="preserve"
   width="483.19052"
   height="481.32697"
   viewBox="0 0 483.19052 481.32696"
   sodipodi:docname="hero_home.svg"
   inkscape:export-filename="/home/sils/Downloads/sustain/business-people-computer-screen-with-graphs/18916.eps.png"
   inkscape:export-xdpi="150"
   inkscape:export-ydpi="150"
   inkscape:version="0.92.4 5da689c313, 2019-01-14"><metadata
     id="metadata8"><rdf:RDF><cc:Work
         rdf:about=""><dc:format>image/svg+xml</dc:format><dc:type
           rdf:resource="http://purl.org/dc/dcmitype/StillImage" /><dc:title></dc:title></cc:Work></rdf:RDF></metadata><defs
     id="defs6"><clipPath
       clipPathUnits="userSpaceOnUse"
       id="clipPath20"><path
         d="M 0,0 H 8228 V 5207 H 0 Z"
         id="path18"
         inkscape:connector-curvature="0" /></clipPath><clipPath
       clipPathUnits="userSpaceOnUse"
       id="clipPath26"><path
         d="M 8227.57,0.03125 H 5804.34 C 5804.34,552.02 4763.39,805.371 3963.78,1470.68 c 43.32,25.6 72.38,72.77 72.38,126.74 v 1746.1 c 0,69.6 -48.34,127.91 -113.27,143.19 v 221.07 h -319.11 c 208.11,193.3 478.06,345.93 775.57,446.61 963.7,326.13 421.69,1052.9 421.69,1052.9 H 0.00390625 V 0 L 0,0.03125 V 5207.29 H 8227.57 V 0.03125"
         id="path24"
         inkscape:connector-curvature="0" /></clipPath><linearGradient
       x1="0"
       y1="0"
       x2="1"
       y2="0"
       gradientUnits="userSpaceOnUse"
       gradientTransform="matrix(4181.07,-4181.07,-4181.07,-4181.07,2454.72,4262.73)"
       spreadMethod="pad"
       id="linearGradient32"><stop
         style="stop-opacity:1;stop-color:#40d5e6"
         offset="0"
         id="stop28" /><stop
         style="stop-opacity:1;stop-color:#5577ff"
         offset="1"
         id="stop30" /></linearGradient><clipPath
       clipPathUnits="userSpaceOnUse"
       id="clipPath42"><path
         d="m 6126.85,1719.17 c 0,-404.57 -327.96,-732.529 -732.53,-732.529 -404.57,0 -732.54,327.959 -732.54,732.529 0,404.58 327.97,732.53 732.54,732.53 404.57,0 732.53,-327.95 732.53,-732.53 z"
         id="path40"
         inkscape:connector-curvature="0" /></clipPath><linearGradient
       x1="0"
       y1="0"
       x2="1"
       y2="0"
       gradientUnits="userSpaceOnUse"
       gradientTransform="matrix(-1093.76,-2125.9,-2125.9,1093.76,6033.57,2961.66)"
       spreadMethod="pad"
       id="linearGradient48"><stop
         style="stop-opacity:1;stop-color:#40d5e6"
         offset="0"
         id="stop44" /><stop
         style="stop-opacity:1;stop-color:#5577ff"
         offset="1"
         id="stop46" /></linearGradient><clipPath
       clipPathUnits="userSpaceOnUse"
       id="clipPath58"><path
         d="M 8227.57,4668.87 V 1951.54 c -114.67,-30.34 -235.14,-46.43 -359.33,-46.43 -776.01,0 -1405.09,629.09 -1405.09,1405.1 0,776 629.08,1405.09 1405.09,1405.09 124.19,0 244.66,-16.08 359.33,-46.43 z"
         id="path56"
         inkscape:connector-curvature="0" /></clipPath><linearGradient
       x1="0"
       y1="0"
       x2="1"
       y2="0"
       gradientUnits="userSpaceOnUse"
       gradientTransform="matrix(-2073.45,-4030.08,-4030.08,2073.45,8866.14,5757.19)"
       spreadMethod="pad"
       id="linearGradient64"><stop
         style="stop-opacity:1;stop-color:#40d5e6"
         offset="0"
         id="stop60" /><stop
         style="stop-opacity:1;stop-color:#5577ff"
         offset="1"
         id="stop62" /></linearGradient><clipPath
       clipPathUnits="userSpaceOnUse"
       id="clipPath716"><path
         d="M 7462.99,1164.48 H 6678.7 c -56.76,0 -102.77,46.01 -102.77,102.77 v 75.72 c 0,56.76 46.01,102.78 102.77,102.78 h 784.29 c 56.77,0 102.78,-46.02 102.78,-102.78 v -75.72 c 0,-56.76 -46.01,-102.77 -102.78,-102.77 z"
         id="path714"
         inkscape:connector-curvature="0" /></clipPath><linearGradient
       x1="0"
       y1="0"
       x2="1"
       y2="0"
       gradientUnits="userSpaceOnUse"
       gradientTransform="matrix(1511.19,0,0,-1511.19,6414.94,1305.11)"
       spreadMethod="pad"
       id="linearGradient722"><stop
         style="stop-opacity:1;stop-color:#c7ecf0"
         offset="0"
         id="stop718" /><stop
         style="stop-opacity:1;stop-color:#d1daff"
         offset="1"
         id="stop720" /></linearGradient><clipPath
       clipPathUnits="userSpaceOnUse"
       id="clipPath746"><path
         d="m 4115.1,2626.23 c -123.86,-102.25 -247.68,-174.15 -319.92,-142.41 -4.27,1.88 -8.31,4.09 -12.13,6.63 -42.08,28.06 -62.02,99.98 -46.37,234.55 41.66,358.15 258.46,432.39 456.71,555.41 195.8,121.36 99.68,337.46 97.18,342.94 323.28,-477.05 34.47,-823.71 -175.47,-997.12 z"
         id="path744"
         inkscape:connector-curvature="0" /></clipPath><linearGradient
       x1="0"
       y1="0"
       x2="1"
       y2="0"
       gradientUnits="userSpaceOnUse"
       gradientTransform="matrix(704.175,0,0,-704.175,3731.37,3049.8)"
       spreadMethod="pad"
       id="linearGradient752"><stop
         style="stop-opacity:1;stop-color:#40d5e6"
         offset="0"
         id="stop748" /><stop
         style="stop-opacity:1;stop-color:#5577ff"
         offset="1"
         id="stop750" /></linearGradient><clipPath
       clipPathUnits="userSpaceOnUse"
       id="clipPath762"><path
         d="m 3795.18,2483.82 c -4.27,1.88 -8.31,4.09 -12.13,6.63 20.44,70.64 67.13,207.9 139.76,286.11 34.29,36.89 74.8,71.01 117.63,107.19 81.07,68.28 164.85,138.99 217.34,237.39 l 11.81,-6.26 c -53.75,-100.68 -138.53,-172.16 -220.57,-241.32 -42.56,-35.87 -82.74,-69.73 -116.42,-106.06 -70.86,-76.27 -117.53,-214.83 -137.42,-283.68 z"
         id="path760"
         inkscape:connector-curvature="0" /></clipPath><linearGradient
       x1="0"
       y1="0"
       x2="1"
       y2="0"
       gradientUnits="userSpaceOnUse"
       gradientTransform="matrix(401.918,604.328,604.328,-401.918,3727.7,2393.54)"
       spreadMethod="pad"
       id="linearGradient768"><stop
         style="stop-opacity:1;stop-color:#40d5e6"
         offset="0"
         id="stop764" /><stop
         style="stop-opacity:1;stop-color:#5577ff"
         offset="1"
         id="stop766" /></linearGradient><clipPath
       clipPathUnits="userSpaceOnUse"
       id="clipPath780"><path
         d="m 1472.3,2355.84 c 0,0 -9.94,5.75 -27.07,16.51 -4.4,6.85 -8.81,13.78 -13.22,20.71 -86.32,136.15 -191.32,321.68 -201.5,432.52 -6.24,66.84 -2.98,143.52 0.15,217.65 6.57,155.46 13.37,316.26 -63.21,405.37 -117.09,135.95 -120.97,365.46 -121.02,375.2 l 17.11,0.2 c -0.01,-2.35 3.92,-233.08 116.83,-364.32 81.08,-94.1 74.13,-258.34 67.4,-417.21 -3.15,-73.53 -6.33,-149.67 -0.23,-215.31 10.1,-108.94 119.94,-304.21 222.26,-462.03 1.64,-6.04 2.5,-9.29 2.5,-9.29 z"
         id="path778"
         inkscape:connector-curvature="0" /></clipPath><linearGradient
       x1="0"
       y1="0"
       x2="1"
       y2="0"
       gradientUnits="userSpaceOnUse"
       gradientTransform="matrix(-187.04,1013.97,1013.97,187.04,1390.97,2350.77)"
       spreadMethod="pad"
       id="linearGradient788"><stop
         style="stop-opacity:1;stop-color:#3c6127"
         offset="0"
         id="stop782" /><stop
         style="stop-opacity:1;stop-color:#3c6127"
         offset="0.00518135"
         id="stop784" /><stop
         style="stop-opacity:1;stop-color:#639c38"
         offset="1"
         id="stop786" /></linearGradient><clipPath
       clipPathUnits="userSpaceOnUse"
       id="clipPath800"><path
         d="m 1237.62,2719.13 c 28.64,-89.2 55.62,-173.39 129.76,-210.2 64.74,-32.19 136.05,-82.08 198.93,-131.23 5.9,-5.61 9.61,-8.43 9.61,-8.43 -8.05,-0.34 -17.8,0.28 -29.01,1.86 -59.84,46.26 -126.47,92.36 -187.2,122.51 -80.52,39.99 -108.6,127.56 -138.35,220.26 -33.74,105.1 -68.64,213.89 -184,262.47 -220.356,92.7 -333.196,219.99 -334.348,221.26 l 12.894,11.32 c 1.035,-1.27 111.621,-125.72 328.094,-216.87 122.64,-51.58 158.77,-164.11 193.62,-272.95 z"
         id="path798"
         inkscape:connector-curvature="0" /></clipPath><linearGradient
       x1="0"
       y1="0"
       x2="1"
       y2="0"
       gradientUnits="userSpaceOnUse"
       gradientTransform="matrix(-579.624,574.076,574.076,579.624,1591.39,2364.39)"
       spreadMethod="pad"
       id="linearGradient808"><stop
         style="stop-opacity:1;stop-color:#3c6127"
         offset="0"
         id="stop802" /><stop
         style="stop-opacity:1;stop-color:#3c6127"
         offset="0.00518135"
         id="stop804" /><stop
         style="stop-opacity:1;stop-color:#639c38"
         offset="1"
         id="stop806" /></linearGradient><clipPath
       clipPathUnits="userSpaceOnUse"
       id="clipPath822"><path
         d="m 3922.89,1770.04 h -346.75 c 2.78,20.58 4.23,41.61 4.23,62.95 0,186.51 -109.82,347.35 -268.33,421.4 l 71.27,81.27 202.99,-11.46 161.81,223.2 -10.94,7.93 -157.48,-217.22 -202.2,11.41 -78.35,-89.35 c -56.33,24.25 -118.41,37.68 -183.63,37.68 -38.14,0 -75.22,-4.6 -110.69,-13.26 h -33.49 v -9.54 c -186.16,-60.67 -320.68,-235.65 -320.68,-442.06 0,-21.34 1.45,-42.37 4.23,-62.95 H 1257.21 v 1716.67 221.07 h 2346.57 319.11 V 3486.71 1770.04"
         id="path820"
         inkscape:connector-curvature="0" /></clipPath><linearGradient
       x1="0"
       y1="0"
       x2="1"
       y2="0"
       gradientUnits="userSpaceOnUse"
       gradientTransform="matrix(2665.67,0,0,-2665.67,1257.21,2738.91)"
       spreadMethod="pad"
       id="linearGradient828"><stop
         style="stop-opacity:1;stop-color:#ffffff"
         offset="0"
         id="stop824" /><stop
         style="stop-opacity:1;stop-color:#f2f5ff"
         offset="1"
         id="stop826" /></linearGradient><clipPath
       clipPathUnits="userSpaceOnUse"
       id="clipPath838"><path
         d="m 1257.21,3473.74 h 2665.68 v 234.04 H 1257.21 Z"
         id="path836"
         inkscape:connector-curvature="0" /></clipPath><linearGradient
       x1="0"
       y1="0"
       x2="1"
       y2="0"
       gradientUnits="userSpaceOnUse"
       gradientTransform="matrix(-3322.55,2.905e-4,2.905e-4,3322.55,4355.92,3590.76)"
       spreadMethod="pad"
       id="linearGradient844"><stop
         style="stop-opacity:1;stop-color:#ff9f55"
         offset="0"
         id="stop840" /><stop
         style="stop-opacity:1;stop-color:#ffd255"
         offset="1"
         id="stop842" /></linearGradient><clipPath
       clipPathUnits="userSpaceOnUse"
       id="clipPath860"><path
         d="m 817.242,2246.55 c -207.285,105.84 -177.152,308.91 -177.152,308.91 136.148,0 177.152,44.38 177.152,44.38 0,0 40.996,-44.38 177.149,-44.38 0,0 30.139,-203.07 -177.149,-308.91 z m 202.498,327.84 c -155.635,0 -202.498,50.73 -202.498,50.73 0,0 -46.867,-50.73 -202.508,-50.73 0,0 -34.445,-232.14 202.508,-353.12 236.948,120.98 202.498,353.12 202.498,353.12 z"
         id="path858"
         inkscape:connector-curvature="0" /></clipPath><linearGradient
       x1="0"
       y1="0"
       x2="1"
       y2="0"
       gradientUnits="userSpaceOnUse"
       gradientTransform="matrix(408.501,0,0,-408.501,612.988,2423.2)"
       spreadMethod="pad"
       id="linearGradient866"><stop
         style="stop-opacity:1;stop-color:#ff9f55"
         offset="0"
         id="stop862" /><stop
         style="stop-opacity:1;stop-color:#ffd255"
         offset="1"
         id="stop864" /></linearGradient><clipPath
       clipPathUnits="userSpaceOnUse"
       id="clipPath876"><path
         d="m 805.188,2556.93 v -267.46 c -156.926,80.12 -134.11,233.86 -134.11,233.86 103.07,0 134.11,33.6 134.11,33.6 z"
         id="path874"
         inkscape:connector-curvature="0" /></clipPath><linearGradient
       x1="0"
       y1="0"
       x2="1"
       y2="0"
       gradientUnits="userSpaceOnUse"
       gradientTransform="matrix(-240.384,-2.1e-5,-2.1e-5,240.384,875.747,2423.2)"
       spreadMethod="pad"
       id="linearGradient882"><stop
         style="stop-opacity:1;stop-color:#ff9f55"
         offset="0"
         id="stop878" /><stop
         style="stop-opacity:1;stop-color:#ffd255"
         offset="1"
         id="stop880" /></linearGradient><clipPath
       clipPathUnits="userSpaceOnUse"
       id="clipPath894"><path
         d="m 4546.06,2364.11 v -74.39 h -23.98 v 74.39 c -18.95,5.25 -32.89,22.57 -32.89,43.19 0,24.78 20.09,44.87 44.88,44.87 24.77,0 44.86,-20.09 44.86,-44.87 0,-20.62 -13.93,-37.94 -32.87,-43.19 z m 100.1,161.55 h -224.19 c -23.54,0 -42.62,-19.08 -42.62,-42.62 v -224.2 c 0,-23.53 19.08,-42.61 42.62,-42.61 h 224.19 c 23.53,0 42.61,19.08 42.61,42.61 v 224.2 c 0,23.54 -19.08,42.62 -42.61,42.62 z"
         id="path892"
         inkscape:connector-curvature="0" /></clipPath><linearGradient
       x1="0"
       y1="0"
       x2="1"
       y2="0"
       gradientUnits="userSpaceOnUse"
       gradientTransform="matrix(-549.893,-4.81e-5,-4.81e-5,549.893,4850.19,2370.94)"
       spreadMethod="pad"
       id="linearGradient900"><stop
         style="stop-opacity:1;stop-color:#ff9f55"
         offset="0"
         id="stop896" /><stop
         style="stop-opacity:1;stop-color:#ffd255"
         offset="1"
         id="stop898" /></linearGradient><clipPath
       clipPathUnits="userSpaceOnUse"
       id="clipPath910"><path
         d="m 2911.03,4369.39 c 0,-6.37 -0.27,-12.66 -0.79,-18.9 -1.09,-13.33 -3.37,-26.35 -6.71,-38.91 -16.89,-63.88 -61.18,-116.61 -119.5,-144.92 -29.68,-14.4 -63,-22.48 -98.2,-22.48 -13.64,0 -26.99,1.22 -39.94,3.55 -57.76,10.32 -107.88,42.67 -141.35,88.04 -23.66,32.01 -39.01,70.52 -42.91,112.36 -0.68,7 -1,14.08 -1,21.26 0,72.77 34.51,137.46 88.04,178.6 37.98,29.25 85.54,46.6 137.16,46.6 62.55,0 119.15,-25.51 159.97,-66.7 v -0.01 c 40.33,-40.69 65.23,-96.68 65.23,-158.49 z"
         id="path908"
         inkscape:connector-curvature="0" /></clipPath><linearGradient
       x1="0"
       y1="0"
       x2="1"
       y2="0"
       gradientUnits="userSpaceOnUse"
       gradientTransform="matrix(-450.405,-3.94e-5,-3.94e-5,450.405,2911.03,4369.39)"
       spreadMethod="pad"
       id="linearGradient916"><stop
         style="stop-opacity:1;stop-color:#ff9f55"
         offset="0"
         id="stop912" /><stop
         style="stop-opacity:1;stop-color:#ffd255"
         offset="1"
         id="stop914" /></linearGradient><clipPath
       clipPathUnits="userSpaceOnUse"
       id="clipPath1056"><path
         d="m 4488.35,1498.74 -837.14,142.53 24.23,142.33 837.15,-142.54 z"
         id="path1054"
         inkscape:connector-curvature="0" /></clipPath><linearGradient
       x1="0"
       y1="0"
       x2="1"
       y2="0"
       gradientUnits="userSpaceOnUse"
       gradientTransform="matrix(-861.387,0,0,-861.387,4512.59,1641.17)"
       spreadMethod="pad"
       id="linearGradient1062"><stop
         style="stop-opacity:1;stop-color:#ff9f55"
         offset="0"
         id="stop1058" /><stop
         style="stop-opacity:1;stop-color:#ffd255"
         offset="1"
         id="stop1060" /></linearGradient><clipPath
       clipPathUnits="userSpaceOnUse"
       id="clipPath1114"><path
         d="m 3576.14,1770.04 h -808.92 c 30.35,80.04 70.5,143.84 115.96,194.66 h 133.06 v 28.4 h -105.76 c 44.19,42.77 92.23,74.8 140.49,98.72 l 54.41,-11.79 c -0.21,-3.74 0.08,-7.57 0.91,-11.4 4.34,-20.02 22.11,-33.74 41.81,-33.74 2.99,0 6.02,0.32 9.06,0.97 23.06,5 37.76,27.82 32.76,50.87 -1.5,6.95 -4.62,13.14 -8.88,18.26 l 37.03,42.23 c 55.08,10.55 103.59,13.17 138.2,13.17 34.17,0 54.79,-2.55 54.79,-2.55 v 0 0 c -34.36,31.28 -73.71,57.18 -116.71,76.38 l 17.69,20.17 c 158.51,-74.05 268.33,-234.89 268.33,-421.4 0,-21.34 -1.45,-42.37 -4.23,-62.95 m -298.84,311.42 v -28.4 h 147.5 v 28.4 h -147.5 m -596.48,-311.42 h -25.94 c -2.78,20.58 -4.23,41.61 -4.23,62.95 0,206.41 134.52,381.39 320.68,442.06 v -18.87 h 26.35 c -153,-42.51 -272.38,-165.76 -309.38,-320.97 l -25.19,-23.77 9.27,-9.82 11.06,10.43 c -4.66,-25.64 -7.1,-52.07 -7.1,-79.06 0,-21.37 1.53,-42.39 4.48,-62.95 m 427.44,323.19 -37.24,8.07 c 42.75,19.25 85.31,32.43 125.07,41.35 l -25.22,-28.76 c -6.7,4.21 -14.55,6.58 -22.75,6.58 -2.99,0 -6.03,-0.31 -9.07,-0.97 -14.53,-3.15 -25.73,-13.37 -30.79,-26.27 m 173.02,146.57 c -50.19,20.48 -105,31.93 -162.45,32.35 v 12.44 h -114.01 c 35.47,8.66 72.55,13.26 110.69,13.26 65.22,0 127.3,-13.43 183.63,-37.68 l -17.86,-20.37"
         id="path1112"
         inkscape:connector-curvature="0" /></clipPath><linearGradient
       x1="0"
       y1="0"
       x2="1"
       y2="0"
       gradientUnits="userSpaceOnUse"
       gradientTransform="matrix(2665.67,0,0,-2665.67,1257.21,2738.91)"
       spreadMethod="pad"
       id="linearGradient1120"><stop
         style="stop-opacity:1;stop-color:#f8f8f8"
         offset="0"
         id="stop1116" /><stop
         style="stop-opacity:1;stop-color:#eceff8"
         offset="1"
         id="stop1118" /></linearGradient><clipPath
       clipPathUnits="userSpaceOnUse"
       id="clipPath1144"><path
         d="m 2767.22,1770.04 h -86.4 c -2.95,20.56 -4.48,41.58 -4.48,62.95 0,26.99 2.44,53.42 7.1,79.06 l 193.47,182.55 c 7.63,-6.54 17.48,-10.35 27.86,-10.35 2.99,0 6.03,0.31 9.07,0.97 15.69,3.39 27.5,15.04 31.88,29.41 l 105.25,-22.81 c -48.26,-23.92 -96.3,-55.95 -140.49,-98.72 h -41.74 v -28.4 h 14.44 c -45.46,-50.82 -85.61,-114.62 -115.96,-194.66 m -78.92,165.17 c 37,155.21 156.38,278.46 309.38,320.97 h 121.15 v 15.97 c 57.45,-0.42 112.26,-11.87 162.45,-32.35 l -85.19,-97.15 c -39.76,-8.92 -82.32,-22.1 -125.07,-41.35 l -123.46,26.75 c -0.06,2.66 -0.38,5.35 -0.96,8.04 -4.34,20.02 -22.11,33.74 -41.81,33.74 -2.99,0 -6.02,-0.32 -9.06,-0.98 -23.06,-4.99 -37.76,-27.81 -32.76,-50.87 1.03,-4.74 2.81,-9.13 5.19,-13.07 l -179.86,-169.7 m 529.77,212.01 76.28,87 c 43,-19.2 82.35,-45.1 116.71,-76.38 0,0 -20.62,2.55 -54.79,2.55 -34.61,0 -83.12,-2.62 -138.2,-13.17"
         id="path1142"
         inkscape:connector-curvature="0" /></clipPath><linearGradient
       x1="0"
       y1="0"
       x2="1"
       y2="0"
       gradientUnits="userSpaceOnUse"
       gradientTransform="matrix(2665.67,0,0,-2665.67,1257.21,2738.91)"
       spreadMethod="pad"
       id="linearGradient1150"><stop
         style="stop-opacity:1;stop-color:#d6dce8"
         offset="0"
         id="stop1146" /><stop
         style="stop-opacity:1;stop-color:#cdd5e8"
         offset="1"
         id="stop1148" /></linearGradient><clipPath
       clipPathUnits="userSpaceOnUse"
       id="clipPath1240"><path
         d="m 2460.63,0.03125 c 0,0 -317.57,271.89075 -988.33,271.89075 C 801.531,271.922 260.891,445.129 0.00390625,908.52 V 0 Z"
         id="path1238"
         inkscape:connector-curvature="0" /></clipPath><linearGradient
       x1="0"
       y1="0"
       x2="1"
       y2="0"
       gradientUnits="userSpaceOnUse"
       gradientTransform="matrix(3756.65,0,0,-3756.65,-400.205,454.25)"
       spreadMethod="pad"
       id="linearGradient1246"><stop
         style="stop-opacity:1;stop-color:#40d5e6"
         offset="0"
         id="stop1242" /><stop
         style="stop-opacity:1;stop-color:#5577ff"
         offset="1"
         id="stop1244" /></linearGradient></defs><sodipodi:namedview
     pagecolor="#ffffff"
     bordercolor="#666666"
     borderopacity="1"
     objecttolerance="10"
     gridtolerance="10"
     guidetolerance="10"
     inkscape:pageopacity="0"
     inkscape:pageshadow="2"
     inkscape:window-width="1920"
     inkscape:window-height="1043"
     id="namedview4"
     showgrid="false"
     fit-margin-top="0"
     fit-margin-left="0"
     fit-margin-right="0"
     fit-margin-bottom="0"
     inkscape:zoom="0.87662129"
     inkscape:cx="-4.0991073"
     inkscape:cy="186.22763"
     inkscape:window-x="1920"
     inkscape:window-y="0"
     inkscape:window-maximized="1"
     inkscape:current-layer="g10" /><g
     id="g10"
     inkscape:groupmode="layer"
     inkscape:label="ink_ext_XXXXXX"
     transform="matrix(1.3333333,0,0,-1.3333333,-118.48814,590.17016)"><path
       inkscape:connector-curvature="0"
       id="path812"
       style="fill:#aebecc;fill-opacity:1;fill-rule:nonzero;stroke:none;stroke-width:0.1"
       d="m 242.258,92.3039 h 33.4938 v 101.733 H 242.258 Z" /><path
       inkscape:connector-curvature="0"
       id="path814"
       style="fill:#dedede;fill-opacity:1;fill-rule:nonzero;stroke:none;stroke-width:0.1"
       d="m 129.104,145.031 h 259.801 c 8.125,0 14.711,6.587 14.711,14.711 v 174.61 c 0,8.124 -6.586,14.71 -14.711,14.71 H 129.104 c -8.124,0 -14.71,-6.586 -14.71,-14.71 v -174.61 c 0,-8.124 6.586,-14.711 14.71,-14.711" /><g
       id="g816"
       transform="scale(0.1)"><g
         clip-path="url(#clipPath822)"
         id="g818"><path
           inkscape:connector-curvature="0"
           id="path830"
           style="fill:url(#linearGradient828);fill-opacity:1;fill-rule:nonzero;stroke:none"
           d="m 3922.89,1770.04 h -346.75 c 2.78,20.58 4.23,41.61 4.23,62.95 0,186.51 -109.82,347.35 -268.33,421.4 l 71.27,81.27 202.99,-11.46 161.81,223.2 -10.94,7.93 -157.48,-217.22 -202.2,11.41 -78.35,-89.35 c -56.33,24.25 -118.41,37.68 -183.63,37.68 -38.14,0 -75.22,-4.6 -110.69,-13.26 h -33.49 v -9.54 c -186.16,-60.67 -320.68,-235.65 -320.68,-442.06 0,-21.34 1.45,-42.37 4.23,-62.95 H 1257.21 v 1716.67 221.07 h 2346.57 319.11 V 3486.71 1770.04" /></g></g><g
       id="g832"
       transform="scale(0.1)"
       style="fill:#1a3c8c;fill-opacity:1"><g
         clip-path="url(#clipPath838)"
         id="g834"
         style="fill:#1a3c8c;fill-opacity:1"><path
           inkscape:connector-curvature="0"
           id="path846"
           style="fill:#1a3c8c;fill-opacity:1;fill-rule:nonzero;stroke:none"
           d="m 1257.21,3473.74 h 2665.68 v 234.04 H 1257.21 v -234.04" /></g></g><path
       inkscape:connector-curvature="0"
       id="path848"
       style="fill:#949494;fill-opacity:1;fill-rule:nonzero;stroke:none;stroke-width:0.1"
       d="m 249.676,162.375 c 0,-5.153 4.177,-9.331 9.329,-9.331 5.152,0 9.329,4.178 9.329,9.331 0,5.152 -4.177,9.329 -9.329,9.329 -5.152,0 -9.329,-4.177 -9.329,-9.329" /><path
       inkscape:connector-curvature="0"
       id="path850"
       style="fill:#e3e3e3;fill-opacity:1;fill-rule:nonzero;stroke:none;stroke-width:0.1"
       d="M 334.347,88.4641 H 183.663 v 7.68 h 150.684 v -7.68" /><path
       inkscape:connector-curvature="0"
       id="path852"
       style="fill:#f5f7ff;fill-opacity:1;fill-rule:nonzero;stroke:none;stroke-width:0.1"
       d="m 171.696,354.654 h -31.662 c -1.756,0 -3.179,1.424 -3.179,3.179 v 2.486 c 0,1.756 1.423,3.179 3.179,3.179 h 31.662 c 1.756,0 3.179,-1.423 3.179,-3.179 v -2.486 c 0,-1.755 -1.423,-3.179 -3.179,-3.179" /><path
       inkscape:connector-curvature="0"
       id="path930"
       style="fill:#e0e0e0;fill-opacity:1;fill-rule:nonzero;stroke:none;stroke-width:0.1"
       d="m 143.493,236.488 h -9.364 v -51.041 h 9.364 v 51.041" /><path
       inkscape:connector-curvature="0"
       id="path932"
       style="fill:#e0e0e0;fill-opacity:1;fill-rule:nonzero;stroke:none;stroke-width:0.1"
       d="m 164.165,251.325 h -9.364 v -65.878 h 9.364 v 65.878" /><path
       inkscape:connector-curvature="0"
       id="path934"
       style="fill:#e0e0e0;fill-opacity:1;fill-rule:nonzero;stroke:none;stroke-width:0.1"
       d="m 184.837,226.073 h -9.364 v -40.626 h 9.364 v 40.626" /><path
       inkscape:connector-curvature="0"
       id="path936"
       style="fill:#e0e0e0;fill-opacity:1;fill-rule:nonzero;stroke:none;stroke-width:0.1"
       d="m 205.509,245.761 h -9.363 v -60.314 h 9.363 v 60.314" /><path
       inkscape:connector-curvature="0"
       id="path938"
       style="fill:#e0e0e0;fill-opacity:1;fill-rule:nonzero;stroke:none;stroke-width:0.1"
       d="m 226.182,259.6 h -9.364 v -74.153 h 9.364 V 259.6" /><path
       inkscape:connector-curvature="0"
       id="path940"
       style="fill:#e0e0e0;fill-opacity:1;fill-rule:nonzero;stroke:none;stroke-width:0.1"
       d="m 246.854,233.349 h -9.364 v -47.902 h 9.364 v 47.902" /><path
       inkscape:connector-curvature="0"
       id="path942"
       style="fill:#4aafff;fill-opacity:1;fill-rule:nonzero;stroke:none;stroke-width:0.1"
       d="m 143.493,222.396 h -9.364 v -36.949 h 9.364 v 36.949" /><path
       inkscape:connector-curvature="0"
       id="path944"
       style="fill:#4aafff;fill-opacity:1;fill-rule:nonzero;stroke:none;stroke-width:0.1"
       d="m 164.165,233.137 h -9.364 v -47.69 h 9.364 v 47.69" /><path
       inkscape:connector-curvature="0"
       id="path946"
       style="fill:#4aafff;fill-opacity:1;fill-rule:nonzero;stroke:none;stroke-width:0.1"
       d="m 184.837,214.857 h -9.364 v -29.41 h 9.364 v 29.41" /><path
       inkscape:connector-curvature="0"
       id="path948"
       style="fill:#4aafff;fill-opacity:1;fill-rule:nonzero;stroke:none;stroke-width:0.1"
       d="m 205.509,229.109 h -9.363 v -43.662 h 9.363 v 43.662" /><path
       inkscape:connector-curvature="0"
       id="path950"
       style="fill:#4aafff;fill-opacity:1;fill-rule:nonzero;stroke:none;stroke-width:0.1"
       d="m 226.182,239.126 h -9.364 v -53.679 h 9.364 v 53.679" /><path
       inkscape:connector-curvature="0"
       id="path952"
       style="fill:#4aafff;fill-opacity:1;fill-rule:nonzero;stroke:none;stroke-width:0.1"
       d="m 246.854,220.124 h -9.364 v -34.677 h 9.364 v 34.677" /><path
       inkscape:connector-curvature="0"
       id="path954"
       style="fill:#eea886;fill-opacity:1;fill-rule:nonzero;stroke:none;stroke-width:0.1"
       d="m 93.9527,157.278 c 0,0 0.543,-0.89 0.611,-1.615 0.0535,-0.575 0.5363,-1.433 0.7453,-1.907 0.2098,-0.474 0.8824,-2.62 0.9062,-3.178 0.0106,-0.229 -0.4996,-1.668 -0.4269,-2.128 0.0722,-0.46 0.3351,-1.372 -0.0778,-1.433 -0.4136,-0.06 -0.8824,0.687 -0.8824,0.687 0,0 0.0395,-0.424 -0.3105,-0.585 -0.6801,-0.316 -1.0403,-0.038 -1.0403,-0.038 0,0 -0.2503,-0.466 -0.5656,-0.529 -0.6945,-0.138 -1.0344,0.14 -1.0344,0.14 0,0 -0.3054,-0.262 -0.7855,-0.253 -0.6137,0.013 -0.8715,0.543 -0.8715,0.543 0,0 -0.7773,-0.158 -1.0023,0.205 -0.2258,0.362 -0.1867,0.749 -0.2801,1.078 -0.0938,0.328 -0.0231,3.296 0.9855,5.432 1.0079,2.136 -0.257,4.22 -0.257,4.22 l 4.2863,-0.639" /><path
       inkscape:connector-curvature="0"
       id="path956"
       style="fill:#db9c7c;fill-opacity:1;fill-rule:nonzero;stroke:none;stroke-width:0.1"
       d="m 94.9375,147.982 c 0,0 0.0691,2.662 -0.6312,3.229 -0.7008,0.567 -0.7805,-0.394 -0.7805,-0.394 0,0 0.0949,0.95 -0.6707,1.078 -0.7656,0.128 -0.7981,-1 -0.7981,-1 0,0 -0.1254,0.732 -0.9297,0.582 -0.8046,-0.15 -0.6128,-1.085 -0.6128,-1.085 0,0 -0.768,0.916 -1.2665,0.036 -0.8414,-1.486 -0.03,-3.241 -0.03,-3.241 0,0 0.2367,-0.402 1.0023,-0.205 0,0 0.5121,-1.032 1.657,-0.29 0,0 1.1731,-0.646 1.6,0.389 0,0 1.2926,-0.615 1.4602,0.901" /><path
       inkscape:connector-curvature="0"
       id="path958"
       style="fill:#323657;fill-opacity:1;fill-rule:nonzero;stroke:none;stroke-width:0.1"
       d="m 102.984,195.629 c 0,0 -4.557,-15.19 -6.0973,-20.794 -0.4828,-1.756 -1.6519,-18.539 -1.8578,-19.214 -0.2066,-0.676 -5.9875,-1.601 -5.9875,-1.601 0,0 0.7004,20.994 0.7656,22.139 0.0657,1.145 6.3789,24.59 8.2149,25.425 1.3758,0.627 2.1021,0.109 3.8351,-1.178 2.433,-1.806 1.127,-4.777 1.127,-4.777" /><path
       inkscape:connector-curvature="0"
       id="path960"
       style="fill:#ead8cf;fill-opacity:1;fill-rule:nonzero;stroke:none;stroke-width:0.1"
       d="m 127.333,191.56 1.178,0.436 c 0,0 -1.469,3.447 -2.109,3.363 -0.739,-0.097 -1.66,-0.34 -1.66,-0.34 l 2.591,-3.459" /><path
       inkscape:connector-curvature="0"
       id="path962"
       style="fill:#da9b5b;fill-opacity:1;fill-rule:nonzero;stroke:none;stroke-width:0.1"
       d="m 127.603,190.965 c -0.151,0.113 -2.503,4.626 -2.503,4.626 l -5.027,-0.683 2.716,-5.346 4.814,1.403" /><path
       inkscape:connector-curvature="0"
       id="path964"
       style="fill:#424773;fill-opacity:1;fill-rule:nonzero;stroke:none;stroke-width:0.1"
       d="m 99.2859,91.9141 c 0,0 -0.4152,-2.884 -0.4671,-3.318 -0.0516,-0.432 -4.6215,0.2559 -4.6215,0.2559 l -0.3703,3.4332 c 0,0 4.8878,0.0347 5.4589,-0.3711" /><path
       inkscape:connector-curvature="0"
       id="path966"
       style="fill:#292c47;fill-opacity:1;fill-rule:nonzero;stroke:none;stroke-width:0.1"
       d="m 98.8676,88.9629 c 0,0 1.4474,-1.7379 2.8484,-2.4949 1.4,-0.7578 3.601,-1.0571 4.429,-1.8418 0.598,-0.5653 2.177,-3.0012 -3.639,-2.9532 -5.8162,0.05 -8.6205,-0.3429 -9.2431,0.5899 -0.6238,0.9351 0.9012,6.8961 0.9012,6.8961 0,0 1.3773,-0.4961 4.7035,-0.1961" /><path
       inkscape:connector-curvature="0"
       id="path968"
       style="fill:#424773;fill-opacity:1;fill-rule:nonzero;stroke:none;stroke-width:0.1"
       d="m 132.029,91.9141 c 0,0 -0.416,-2.884 -0.468,-3.318 -0.052,-0.432 -4.621,0.2559 -4.621,0.2559 l -0.37,3.4332 c 0,0 4.888,0.0347 5.459,-0.3711" /><path
       inkscape:connector-curvature="0"
       id="path970"
       style="fill:#292c47;fill-opacity:1;fill-rule:nonzero;stroke:none;stroke-width:0.1"
       d="m 131.61,88.9629 c 0,0 1.448,-1.7379 2.848,-2.4949 1.4,-0.7578 6.554,-1.3801 7.382,-2.1641 0.598,-0.5648 1.592,-2.8437 -6.592,-2.6309 -5.814,0.152 -8.62,-0.3429 -9.243,0.5899 -0.623,0.9351 0.902,6.8961 0.902,6.8961 0,0 1.298,-0.5301 4.703,-0.1961" /><path
       inkscape:connector-curvature="0"
       id="path972"
       style="fill:#292c47;fill-opacity:1;fill-rule:nonzero;stroke:none;stroke-width:0.1"
       d="m 103.07,166.011 c 0,0 -4.293,-6.822 -3.9727,-12.988 0.3203,-6.167 -1.5575,-12.899 -2.2024,-19.341 -0.7187,-7.182 -3.6621,-24.182 -3.7683,-28.024 -0.1071,-3.842 0.457,-16.1088 0.457,-16.1088 l 5.8906,-0.1344 c 0,0 4.9468,29.7222 6.2288,32.7552 1.281,3.033 7.635,24.654 7.849,27.08 0.213,2.426 -10.482,16.761 -10.482,16.761" /><path
       inkscape:connector-curvature="0"
       id="path974"
       style="fill:#292c47;fill-opacity:1;fill-rule:nonzero;stroke:none;stroke-width:0.1"
       d="m 125.673,165.087 c 0,0 3.237,-16.902 3.663,-20.675 0.428,-3.775 0.712,-18.266 0.926,-20.624 0.214,-2.359 1.995,-30.7982 2.563,-34.3732 h -7.531 c 0,0 -5.781,20.7252 -5.781,30.5312 0,9.805 -4.467,21.318 -7.349,27.788 -2.883,6.47 -9.482,6.623 -11.254,18.627 0,0 22.364,2.533 24.763,-1.274" /><path
       inkscape:connector-curvature="0"
       id="path976"
       style="fill:#eea886;fill-opacity:1;fill-rule:nonzero;stroke:none;stroke-width:0.1"
       d="m 110.235,223.367 c 0,0 5.764,2.152 8.421,-2.235 2.657,-4.387 2.401,-13.17 -0.504,-14.25 -2.904,-1.08 -7.269,-0.515 -8.756,2.23 -1.487,2.745 -2.83,6.714 -2.766,9.366 0.065,2.652 2.092,4.123 3.605,4.889" /><path
       inkscape:connector-curvature="0"
       id="path978"
       style="fill:#eea886;fill-opacity:1;fill-rule:nonzero;stroke:none;stroke-width:0.1"
       d="m 117.527,206.681 c 0,0 -0.24,-1.556 0.156,-2.322 0.397,-0.767 -7.466,-0.787 -7.466,-0.787 0,0 -0.639,4.17 -1.849,7.692 -1.21,3.523 9.159,-4.583 9.159,-4.583" /><path
       inkscape:connector-curvature="0"
       id="path980"
       style="fill:#323657;fill-opacity:1;fill-rule:nonzero;stroke:none;stroke-width:0.1"
       d="m 108.368,211.264 c 0,0 0.543,-0.895 2.758,-0.548 2.215,0.347 4.918,3.295 5.843,3.618 0.925,0.324 0.934,0.868 0.934,0.868 l 0.579,-0.847 0.982,-0.062 c 0,0 -0.896,2.636 0.456,3.712 1.351,1.075 -1.403,8.534 -8.507,6.05 0,0 -5.457,-1.504 -5.259,-4.607 0.199,-3.104 0.993,-6.639 2.214,-8.184" /><path
       inkscape:connector-curvature="0"
       id="path982"
       style="fill:#e2d2ca;fill-opacity:1;fill-rule:nonzero;stroke:none;stroke-width:0.1"
       d="m 118.15,204.451 c 0,0 -0.025,1.465 -0.689,1.605 -0.664,0.14 -7.327,0.78 -8.142,0.46 v -1.706 c 0,0 1.57,-0.966 8.831,-0.359" /><path
       inkscape:connector-curvature="0"
       id="path984"
       style="fill:#eea886;fill-opacity:1;fill-rule:nonzero;stroke:none;stroke-width:0.1"
       d="m 117.756,216.33 c -0.125,0.52 -1.448,2.007 -1.955,0.416 -0.507,-1.593 0.766,-3.736 1.476,-3.552 0.709,0.182 0.794,1.816 0.479,3.136" /><path
       inkscape:connector-curvature="0"
       id="path986"
       style="fill:#323657;fill-opacity:1;fill-rule:nonzero;stroke:none;stroke-width:0.1"
       d="m 144.596,187.147 -0.011,0.001 0.011,-0.001" /><path
       inkscape:connector-curvature="0"
       id="path988"
       style="fill:#323657;fill-opacity:1;fill-rule:nonzero;stroke:none;stroke-width:0.1"
       d="m 108.594,222.849 c 0,0 -7.348,-0.575 -0.226,-11.585 l 0.226,11.585" /><path
       inkscape:connector-curvature="0"
       id="path990"
       style="fill:#efaa88;fill-opacity:1;fill-rule:nonzero;stroke:none;stroke-width:0.1"
       d="m 158.671,220.613 c -0.234,0.736 -1.025,0.951 -1.025,0.951 -0.33,0.498 -1.178,0.758 -1.178,0.758 l -0.05,0.1 c 0.521,0.56 2.037,1.607 2.124,1.805 0.107,0.241 0.081,0.268 -0.213,0.428 -0.246,0.134 -2.717,-1.475 -3.542,-2.02 -0.203,-0.128 -0.367,-0.247 -0.4,-0.274 -0.228,-0.193 -0.69,-0.333 -1.079,-0.742 l -0.124,-0.143 c -0.409,-0.523 -1.373,-4.713 -1.373,-4.713 l 1.721,-0.771 1.658,-1.408 c 0,0 1.936,1.603 2.433,2.107 0.497,0.504 0.724,1.091 0.861,1.339 0.033,0.059 0.093,0.145 0.164,0.242 0.225,0.304 0.566,0.712 0.566,0.712 0.169,0.236 0.269,0.826 0.269,0.826 -0.034,0.494 -0.812,0.803 -0.812,0.803" /><path
       inkscape:connector-curvature="0"
       id="path992"
       style="fill:#323657;fill-opacity:1;fill-rule:nonzero;stroke:none;stroke-width:0.1"
       d="m 129.172,202.233 c -4.569,0.602 -11.022,2.218 -11.022,2.218 l -8.831,0.36 c 0,0 -8.105,-1.784 -11.2971,-3.227 -0.3028,-0.135 -0.3039,-7.23 -1.1352,-9.09 l 2.6465,-5.583 c 0,0 1.5288,-11.06 1.8458,-15.978 0.146,-2.258 -3.1528,-21.174 -3.1528,-21.174 0,0 3.5348,-1.04 9.5618,-1.705 6.027,-0.664 21.087,0.24 21.181,0.952 0.095,0.712 -2.916,26.508 -3.05,27.844 -0.204,2.05 0.707,12.945 0.707,12.945 1.392,1.08 13.61,6.751 16.944,9.706 0.891,0.791 4.657,4.458 5.727,5.724 3.79,4.482 6.897,8.326 7.275,9.155 0.43,0.472 -4.118,2.944 -4.53,3.081 -0.361,0.121 -5.485,-6.518 -7.457,-8.654 -0.879,-0.952 -4.534,-3.611 -4.534,-3.611 0,0 -8.021,-3.127 -10.879,-2.963" /><path
       inkscape:connector-curvature="0"
       id="path994"
       style="fill:#e0e0e0;fill-opacity:1;fill-rule:nonzero;stroke:none;stroke-width:0.1"
       d="m 206.73,272.297 h -71.634 c -0.534,0 -0.967,-0.433 -0.967,-0.967 v -3.488 c 0,-0.534 0.433,-0.967 0.967,-0.967 h 71.634 c 0.534,0 0.967,0.433 0.967,0.967 v 3.488 c 0,0.534 -0.433,0.967 -0.967,0.967" /><path
       inkscape:connector-curvature="0"
       id="path996"
       style="fill:#e0e0e0;fill-opacity:1;fill-rule:nonzero;stroke:none;stroke-width:0.1"
       d="m 180.051,283.826 h -44.955 c -0.534,0 -0.967,-0.433 -0.967,-0.967 v -3.487 c 0,-0.535 0.433,-0.967 0.967,-0.967 h 44.955 c 0.534,0 0.967,0.432 0.967,0.967 v 3.487 c 0,0.534 -0.433,0.967 -0.967,0.967" /><path
       inkscape:connector-curvature="0"
       id="path998"
       style="fill:#e0e0e0;fill-opacity:1;fill-rule:nonzero;stroke:none;stroke-width:0.1"
       d="m 191.75,294.641 h -56.654 c -0.534,0 -0.967,-0.433 -0.967,-0.967 v -3.487 c 0,-0.534 0.433,-0.967 0.967,-0.967 h 56.654 c 0.534,0 0.966,0.433 0.966,0.967 v 3.487 c 0,0.534 -0.432,0.967 -0.966,0.967" /><path
       inkscape:connector-curvature="0"
       id="path1000"
       style="fill:#e0e0e0;fill-opacity:1;fill-rule:nonzero;stroke:none;stroke-width:0.1"
       d="m 219.285,305.7 h -84.189 c -0.534,0 -0.967,-0.433 -0.967,-0.967 v -3.487 c 0,-0.535 0.433,-0.967 0.967,-0.967 h 84.189 c 0.533,0 0.966,0.432 0.966,0.967 v 3.487 c 0,0.534 -0.433,0.967 -0.966,0.967" /><path
       inkscape:connector-curvature="0"
       id="path1002"
       style="fill:#e0e0e0;fill-opacity:1;fill-rule:nonzero;stroke:none;stroke-width:0.1"
       d="m 164.5,316.186 h -29.404 c -0.534,0 -0.967,-0.433 -0.967,-0.967 v -3.487 c 0,-0.534 0.433,-0.967 0.967,-0.967 H 164.5 c 0.534,0 0.967,0.433 0.967,0.967 v 3.487 c 0,0.534 -0.433,0.967 -0.967,0.967" /><path
       inkscape:connector-curvature="0"
       id="path1004"
       style="fill:#4aafff;fill-opacity:1;fill-rule:nonzero;stroke:none;stroke-width:0.1"
       d="m 324.433,296.933 c -3.443,9.626 -0.336,20.001 7.015,26.254 1.752,1.49 3.745,2.748 5.949,3.703 0.486,0.211 0.983,0.408 1.49,0.59 5.086,1.819 10.382,1.809 15.167,0.311 6.908,-2.163 12.754,-7.424 15.378,-14.764 0.867,-2.423 1.318,-4.893 1.392,-7.332 0.304,-10.075 -5.84,-19.637 -15.844,-23.215 -12.427,-4.443 -26.103,2.027 -30.547,14.453 z m 33.232,-21.963 c 13.342,4.772 21.537,17.524 21.133,30.963 -0.097,3.254 -0.699,6.547 -1.855,9.779 -3.502,9.789 -11.299,16.809 -20.511,19.693 -6.384,1.999 -13.447,2.011 -20.232,-0.415 -0.675,-0.241 -1.339,-0.504 -1.987,-0.785 -2.939,-1.277 -5.597,-2.952 -7.934,-4.941 -9.805,-8.34 -13.948,-22.179 -9.358,-35.017 5.929,-16.574 24.17,-25.204 40.744,-19.277" /><path
       inkscape:connector-curvature="0"
       id="path1006"
       style="fill:#1a598c;fill-opacity:1;fill-rule:nonzero;stroke:none;stroke-width:0.1"
       d="m 354.054,327.791 2.378,7.614 c 9.212,-2.884 17.009,-9.904 20.511,-19.693 1.156,-3.232 1.758,-6.525 1.855,-9.779 l -7.974,-0.238 c -0.074,2.439 -0.525,4.909 -1.392,7.332 -2.624,7.34 -8.47,12.601 -15.378,14.764" /><path
       inkscape:connector-curvature="0"
       id="path1008"
       style="fill:#2273b5;fill-opacity:1;fill-rule:nonzero;stroke:none;stroke-width:0.1"
       d="m 337.397,326.89 -3.184,7.315 c 0.648,0.281 1.312,0.544 1.987,0.785 6.785,2.426 13.848,2.414 20.232,0.415 l -2.378,-7.614 c -4.785,1.498 -10.081,1.508 -15.167,-0.311 -0.507,-0.182 -1.004,-0.379 -1.49,-0.59" /><path
       inkscape:connector-curvature="0"
       id="path1010"
       style="fill:#5caef2;fill-opacity:1;fill-rule:nonzero;stroke:none;stroke-width:0.1"
       d="m 326.279,329.264 c 2.337,1.989 4.995,3.664 7.934,4.941 l 3.184,-7.315 c -2.204,-0.955 -4.197,-2.213 -5.949,-3.703 l -5.169,6.077" /><path
       inkscape:connector-curvature="0"
       id="path1012"
       style="fill:#78c2ff;fill-opacity:1;fill-rule:nonzero;stroke:none;stroke-width:0.1"
       d="m 299.51,311.183 h -18.063 c -0.935,0 -1.692,0.758 -1.692,1.692 v 1.201 c 0,0.934 0.757,1.691 1.692,1.691 h 18.063 c 0.934,0 1.692,-0.757 1.692,-1.691 v -1.201 c 0,-0.934 -0.758,-1.692 -1.692,-1.692" /><path
       inkscape:connector-curvature="0"
       id="path1014"
       style="fill:#4aafff;fill-opacity:1;fill-rule:nonzero;stroke:none;stroke-width:0.1"
       d="m 278.487,289.658 h -18.063 c -0.934,0 -1.692,0.758 -1.692,1.691 v 1.201 c 0,0.934 0.758,1.692 1.692,1.692 h 18.063 c 0.934,0 1.692,-0.758 1.692,-1.692 v -1.201 c 0,-0.933 -0.758,-1.691 -1.692,-1.691" /><path
       inkscape:connector-curvature="0"
       id="path1016"
       style="fill:#2273b5;fill-opacity:1;fill-rule:nonzero;stroke:none;stroke-width:0.1"
       d="M 301.664,267.294 H 283.6 c -0.934,0 -1.691,0.758 -1.691,1.692 v 1.201 c 0,0.934 0.757,1.691 1.691,1.691 h 18.064 c 0.933,0 1.691,-0.757 1.691,-1.691 v -1.201 c 0,-0.934 -0.758,-1.692 -1.691,-1.692" /><path
       inkscape:connector-curvature="0"
       id="path1018"
       style="fill:#1a598c;fill-opacity:1;fill-rule:nonzero;stroke:none;stroke-width:0.1"
       d="m 338.169,252.179 h -18.063 c -0.935,0 -1.692,0.758 -1.692,1.692 v 1.201 c 0,0.933 0.757,1.691 1.692,1.691 h 18.063 c 0.934,0 1.692,-0.758 1.692,-1.691 v -1.201 c 0,-0.934 -0.758,-1.692 -1.692,-1.692" /><path
       inkscape:connector-curvature="0"
       id="path1020"
       style="fill:#4aafff;fill-opacity:1;fill-rule:nonzero;stroke:none;stroke-width:0.1"
       d="m 267.238,190.162 -0.927,0.982 23.982,22.628 24.272,-5.259 23.184,26.439 20.22,-1.141 15.748,21.722 1.094,-0.793 -16.181,-22.32 -20.299,1.146 -23.275,-26.542 -24.353,5.277 -23.465,-22.139" /><path
       inkscape:connector-curvature="0"
       id="path1022"
       style="fill:#ffffff;fill-opacity:1;fill-rule:nonzero;stroke:none;stroke-width:0.1"
       d="m 318.332,208.531 c 0.421,-1.945 -0.814,-3.863 -2.759,-4.284 -1.945,-0.421 -3.863,0.814 -4.284,2.758 -0.421,1.946 0.814,3.864 2.759,4.285 1.945,0.42 3.863,-0.814 4.284,-2.759" /><path
       inkscape:connector-curvature="0"
       id="path1024"
       style="fill:#4aafff;fill-opacity:1;fill-rule:nonzero;stroke:none;stroke-width:0.1"
       d="m 314.191,210.629 c -1.578,-0.341 -2.583,-1.903 -2.241,-3.48 0.341,-1.577 1.902,-2.583 3.48,-2.241 1.578,0.341 2.583,1.902 2.241,3.48 -0.341,1.577 -1.902,2.583 -3.48,2.241 m 1.525,-7.043 c -2.306,-0.499 -4.588,0.971 -5.087,3.277 -0.5,2.305 0.97,4.588 3.276,5.087 2.306,0.5 4.588,-0.97 5.087,-3.277 0.5,-2.305 -0.97,-4.587 -3.276,-5.087" /><path
       inkscape:connector-curvature="0"
       id="path1026"
       style="fill:#ffffff;fill-opacity:1;fill-rule:nonzero;stroke:none;stroke-width:0.1"
       d="m 341.554,234.793 c 0.421,-1.944 -0.814,-3.862 -2.759,-4.284 -1.944,-0.421 -3.862,0.815 -4.284,2.76 -0.421,1.944 0.815,3.862 2.759,4.283 1.945,0.421 3.863,-0.814 4.284,-2.759" /><path
       inkscape:connector-curvature="0"
       id="path1028"
       style="fill:#4aafff;fill-opacity:1;fill-rule:nonzero;stroke:none;stroke-width:0.1"
       d="m 337.413,236.892 c -1.578,-0.342 -2.583,-1.903 -2.242,-3.48 0.342,-1.579 1.904,-2.583 3.481,-2.243 1.578,0.342 2.583,1.904 2.242,3.482 -0.342,1.577 -1.903,2.583 -3.481,2.241 z m 1.525,-7.043 c -2.306,-0.499 -4.588,0.971 -5.087,3.276 -0.499,2.306 0.971,4.588 3.276,5.087 2.306,0.5 4.588,-0.969 5.087,-3.276 0.499,-2.306 -0.97,-4.587 -3.276,-5.087" /><path
       inkscape:connector-curvature="0"
       id="path1030"
       style="fill:#ffffff;fill-opacity:1;fill-rule:nonzero;stroke:none;stroke-width:0.1"
       d="m 361.626,233.99 c 0.421,-1.945 -0.814,-3.863 -2.759,-4.284 -1.945,-0.421 -3.863,0.814 -4.284,2.758 -0.421,1.946 0.814,3.864 2.759,4.285 1.945,0.42 3.863,-0.814 4.284,-2.759" /><path
       inkscape:connector-curvature="0"
       id="path1032"
       style="fill:#4aafff;fill-opacity:1;fill-rule:nonzero;stroke:none;stroke-width:0.1"
       d="m 357.485,236.088 c -1.577,-0.341 -2.583,-1.903 -2.241,-3.48 0.341,-1.578 1.902,-2.583 3.48,-2.241 1.578,0.341 2.583,1.902 2.242,3.48 -0.342,1.577 -1.903,2.583 -3.481,2.241 z m 1.525,-7.043 c -2.305,-0.499 -4.588,0.971 -5.087,3.277 -0.499,2.305 0.971,4.588 3.276,5.087 2.306,0.5 4.588,-0.97 5.087,-3.277 0.5,-2.305 -0.97,-4.587 -3.276,-5.087" /><path
       inkscape:connector-curvature="0"
       id="path1034"
       style="fill:#ffffff;fill-opacity:1;fill-rule:nonzero;stroke:none;stroke-width:0.1"
       d="m 294,213.466 c 0.421,-1.945 -0.814,-3.863 -2.759,-4.284 -1.945,-0.421 -3.863,0.815 -4.284,2.759 -0.421,1.945 0.814,3.863 2.759,4.284 1.945,0.421 3.863,-0.814 4.284,-2.759" /><path
       inkscape:connector-curvature="0"
       id="path1036"
       style="fill:#4aafff;fill-opacity:1;fill-rule:nonzero;stroke:none;stroke-width:0.1"
       d="m 289.859,215.565 c -1.578,-0.342 -2.583,-1.903 -2.242,-3.482 0.342,-1.577 1.903,-2.583 3.481,-2.241 1.577,0.342 2.583,1.904 2.241,3.481 -0.341,1.578 -1.903,2.583 -3.48,2.242 m 1.525,-7.043 c -2.306,-0.499 -4.588,0.97 -5.087,3.276 -0.5,2.306 0.97,4.588 3.276,5.087 2.305,0.499 4.588,-0.971 5.087,-3.276 0.499,-2.306 -0.97,-4.588 -3.276,-5.087" /><path
       inkscape:connector-curvature="0"
       id="path1038"
       style="fill:#e0e0e0;fill-opacity:1;fill-rule:nonzero;stroke:none;stroke-width:0.1"
       d="m 286.874,196.47 h 14.75 v 2.84023 h -14.75 z" /><path
       inkscape:connector-curvature="0"
       id="path1040"
       style="fill:#e0e0e0;fill-opacity:1;fill-rule:nonzero;stroke:none;stroke-width:0.1"
       d="m 297.133,225.618 h 14.75 v 2.84102 h -14.75 z" /><path
       inkscape:connector-curvature="0"
       id="path1042"
       style="fill:#e0e0e0;fill-opacity:1;fill-rule:nonzero;stroke:none;stroke-width:0.1"
       d="m 327.73,205.306 h 14.75 v 2.84023 h -14.75 z" /><path
       inkscape:connector-curvature="0"
       id="path1044"
       style="fill:#e0e0e0;fill-opacity:1;fill-rule:nonzero;stroke:none;stroke-width:0.1"
       d="m 355.71,245.196 h -14.75 v 2.841 h 14.75 v -2.841" /><path
       inkscape:connector-curvature="0"
       id="path1046"
       style="fill:#e0e0e0;fill-opacity:1;fill-rule:nonzero;stroke:none;stroke-width:0.1"
       d="m 377.133,221.427 h -14.749 v 2.84 h 14.749 v -2.84" /><path
       inkscape:connector-curvature="0"
       id="path1048"
       style="fill:#275070;fill-opacity:1;fill-rule:nonzero;stroke:none;stroke-width:0.1"
       d="m 416.829,186.987 c 0,0 -5.464,12.378 0.875,11.353 0,0 2.158,-1.784 4.373,-5.418 1.676,-2.753 5.164,-10.037 5.035,-12.502 -0.129,-2.462 -1.881,-4.3 -3.774,-8.257 0,0 -3.934,-7.345 -4.099,-8.23 l -4.159,2.159 c 0,0 3.523,7.023 6.006,13.196 l -4.257,7.699" /><g
       id="g1050"
       transform="scale(0.1)"><g
         clip-path="url(#clipPath1056)"
         id="g1052"><path
           inkscape:connector-curvature="0"
           id="path1064"
           style="fill:url(#linearGradient1062);fill-opacity:1;fill-rule:nonzero;stroke:none"
           d="m 4488.35,1498.74 -837.14,142.53 24.23,142.33 837.15,-142.54 -24.24,-142.32" /></g></g><path
       inkscape:connector-curvature="0"
       id="path1066"
       style="fill:#2d3038;fill-opacity:1;fill-rule:nonzero;stroke:none;stroke-width:0.1"
       d="m 365.413,165.842 -4.472,0.762 1.839,10.803 4.472,-0.762 -1.839,-10.803" /><path
       inkscape:connector-curvature="0"
       id="path1068"
       style="fill:#eea886;fill-opacity:1;fill-rule:nonzero;stroke:none;stroke-width:0.1"
       d="m 385.203,82.123 h -1.032 c 0,0 0.344,3.893 -0.61,3.9309 -0.954,0.0383 -3.321,-3.168 -4.734,-3.6648 -1.412,-0.4961 -8.664,-0.9149 -8.702,0.4211 -0.039,1.3347 2.786,1.8699 3.664,2.2507 0.878,0.3821 5.153,4.543 5.917,5.0391 0.763,0.4969 2.065,3.9461 2.065,3.9461 l 4.049,0.1801 c 0,0 0.229,-3.225 0.474,-4.9321 0.092,-0.6312 0.158,-1.207 0.167,-1.5992 0.039,-1.45 -1.258,-5.5719 -1.258,-5.5719" /><path
       inkscape:connector-curvature="0"
       id="path1070"
       style="fill:#eea886;fill-opacity:1;fill-rule:nonzero;stroke:none;stroke-width:0.1"
       d="m 411.284,82.8922 h -0.859 v 3.6238 c -0.716,-0.059 -3.121,-2.3359 -3.865,-2.9949 -0.744,-0.6582 -1.766,-0.6289 -4.901,-0.8281 -3.134,-0.1989 -3.43,1.6781 -2.934,2.316 0.496,0.639 2.1,0.918 2.934,1.3172 0.835,0.4 4.128,4.1129 5.006,4.991 0.877,0.8789 1.413,3.3937 1.413,3.3937 l 3.664,-0.3187 c 0,0 -0.024,-2.3024 0.393,-4.232 V 90.159 l 0.004,-0.0149 c 0.035,-0.1652 0.074,-0.3261 0.117,-0.4832 0.545,-2.007 -0.972,-6.7687 -0.972,-6.7687" /><path
       inkscape:connector-curvature="0"
       id="path1072"
       style="fill:#1d3b54;fill-opacity:1;fill-rule:nonzero;stroke:none;stroke-width:0.1"
       d="m 397.734,165.036 c 0,0 -1.384,-3.275 -1.507,-4.102 -0.122,-0.827 -3.364,-8.664 -4.302,-13.947 -0.561,-3.163 -2.111,-13.065 -2.236,-14.323 -0.215,-2.155 -1.23,-6.911 -1.386,-9.111 -0.087,-1.229 -6.146,-20.112 -7.612,-29.971 0,0 3.484,-0.516 6.101,0.1762 0,0 5.32,10.1888 8.273,24.6408 1.779,8.704 3.352,13.345 4.73,16.93 1.378,3.585 9.183,13.738 9.998,14.879 0.814,1.14 5.918,7.444 1.085,14.272 -4.833,6.829 -13.144,0.556 -13.144,0.556" /><path
       inkscape:connector-curvature="0"
       id="path1074"
       style="fill:#1d3b54;fill-opacity:1;fill-rule:nonzero;stroke:none;stroke-width:0.1"
       d="m 415.183,136.029 c -0.442,-2.94 0.023,-6.802 0.946,-17.552 0.924,-10.749 -1.617,-23.7661 -1.617,-23.7661 -3.19,-1.091 -6.865,0 -6.865,0 0.085,0.7563 0,26.2021 0,28.4691 0,2.268 -0.651,4.841 -0.818,7.444 -0.115,1.774 -0.94,5.043 -1.869,8.381 -0.278,1 -0.565,2.006 -0.845,2.98 v 10e-4 c -0.157,0.546 -0.311,1.082 -0.461,1.601 -1.307,4.535 -3.066,22.045 -3.066,22.045 0,0 9.746,7.851 14.492,0.46 4.745,-7.388 2.308,-12.763 2.141,-13.687 -0.168,-0.925 -1.596,-13.437 -2.038,-16.376" /><path
       inkscape:connector-curvature="0"
       id="path1076"
       style="fill:#122536;fill-opacity:1;fill-rule:nonzero;stroke:none;stroke-width:0.1"
       d="m 411.142,151.822 c -0.076,-0.168 -4.932,-10.947 -6.182,-12.817 -0.278,1 -0.565,2.006 -0.845,2.98 v 10e-4 c 0,0 6.864,9.598 7.027,9.836" /><path
       inkscape:connector-curvature="0"
       id="path1078"
       style="fill:#172f42;fill-opacity:1;fill-rule:nonzero;stroke:none;stroke-width:0.1"
       d="m 411.284,82.8922 h -0.859 v 3.6238 c -0.716,-0.059 -3.121,-2.3359 -3.865,-2.9949 -0.744,-0.6582 -1.766,-0.6289 -4.901,-0.8281 -3.134,-0.1989 -3.43,1.6781 -2.934,2.316 0.496,0.639 2.1,0.918 2.934,1.3172 3.354,-0.1793 7.446,4.5359 9.411,4.5258 1.044,-0.0051 1.034,-0.5829 1.065,-0.6918 V 90.159 l 0.004,-0.0149 c 0.035,-0.1652 0.074,-0.3261 0.117,-0.4832 0.545,-2.007 -0.972,-6.7687 -0.972,-6.7687" /><path
       inkscape:connector-curvature="0"
       id="path1080"
       style="fill:#172f42;fill-opacity:1;fill-rule:nonzero;stroke:none;stroke-width:0.1"
       d="m 385.203,82.123 h -1.032 c 0,0 0.344,3.893 -0.61,3.9309 -0.954,0.0383 -3.321,-3.168 -4.734,-3.6648 -1.412,-0.4961 -8.664,-0.9149 -8.702,0.4211 -0.039,1.3347 2.786,1.8699 3.664,2.2507 2.991,0.0071 7.856,3.3 9.364,3.9672 1.508,0.668 3.141,0.266 3.141,0.266 0.092,-0.6312 0.158,-1.207 0.167,-1.5992 0.039,-1.45 -1.258,-5.5719 -1.258,-5.5719" /><path
       inkscape:connector-curvature="0"
       id="path1082"
       style="fill:#eea886;fill-opacity:1;fill-rule:nonzero;stroke:none;stroke-width:0.1"
       d="m 406.339,206.143 c 0,0 1.556,-4.114 0.346,-7.295 0,0 5.702,0.371 5.918,1.037 0.216,0.665 -0.229,6.83 0.556,8.653 0.783,1.821 -6.82,-2.395 -6.82,-2.395" /><path
       inkscape:connector-curvature="0"
       id="path1084"
       style="fill:#285173;fill-opacity:1;fill-rule:nonzero;stroke:none;stroke-width:0.1"
       d="m 405.789,200.24 c 0,0 -3.37,-1.199 -4.893,-1.532 -1.522,-0.333 -4.708,-1.841 -4.449,-7.522 0.259,-5.681 1.209,-10.607 1.555,-13.049 0.346,-2.44 0.129,-8.654 -0.432,-11.673 0,0 8.078,-2.041 17.582,0 0,0 -1.685,5.149 -1.642,6.481 0.043,1.331 5.616,12.294 5.875,14.024 0.259,1.732 1.383,9.365 -1.166,11.052 -2.549,1.687 -4.623,1.465 -5.702,2.219 -1.08,0.755 -5.152,0.542 -6.728,0" /><path
       inkscape:connector-curvature="0"
       id="path1086"
       style="fill:#285173;fill-opacity:1;fill-rule:nonzero;stroke:none;stroke-width:0.1"
       d="m 418.791,157.538 c -13.802,-3.663 -24.785,-0.015 -24.785,-0.015 1.001,2.059 1.738,4.112 2.272,6.102 l 10e-4,0.001 c 0.377,1.405 0.653,2.776 0.849,4.094 1.122,7.52 -0.341,13.277 -0.341,13.277 1.593,13.111 21.432,17.024 23.021,12.868 1.589,-4.157 -3.079,-22.017 -3.315,-23.548 -0.237,-1.531 2.298,-12.779 2.298,-12.779" /><path
       inkscape:connector-curvature="0"
       id="path1088"
       style="fill:#eea886;fill-opacity:1;fill-rule:nonzero;stroke:none;stroke-width:0.1"
       d="m 411.31,222.651 c -2.293,0.786 -8.489,1.623 -10.077,-7.888 -1.587,-9.512 1.871,-9.675 5.422,-9.404 3.552,0.27 9.108,6.69 9.533,8.641 0.426,1.953 1.662,6.407 -4.878,8.651" /><path
       inkscape:connector-curvature="0"
       id="path1090"
       style="fill:#fccca2;fill-opacity:1;fill-rule:nonzero;stroke:none;stroke-width:0.1"
       d="m 402.51,218.998 c 0,0 1.893,-4.049 4.376,-5.46 0,0 1.555,-4.303 4.924,-6.043 0,0 8.938,5.921 3.751,12.957 -5.186,7.036 -12.465,1.432 -13.051,-1.454" /><path
       inkscape:connector-curvature="0"
       id="path1092"
       style="fill:#eea886;fill-opacity:1;fill-rule:nonzero;stroke:none;stroke-width:0.1"
       d="m 406.667,214.941 c 0.201,0.495 1.54,1.3 2.141,-0.058 0.601,-1.357 -1.557,-3.749 -2.148,-3.62 -0.591,0.129 -0.757,1.8 0.007,3.678" /><path
       inkscape:connector-curvature="0"
       id="path1094"
       style="fill:#fccca2;fill-opacity:1;fill-rule:nonzero;stroke:none;stroke-width:0.1"
       d="m 415.258,219.365 c 0.196,0.304 6.115,3.044 7.346,-2.681 1.23,-5.726 -4.768,-12.383 -5.818,-15.246 -1.051,-2.862 0.474,-9.572 0.474,-9.572 0,0 -3.608,3.412 -4.7,6.982 -1.199,3.922 -1.602,13.81 2.698,20.517" /><path
       inkscape:connector-curvature="0"
       id="path1096"
       style="fill:#e54242;fill-opacity:1;fill-rule:nonzero;stroke:none;stroke-width:0.1"
       d="m 415.557,219.56 c 0,0 -1.811,-1.434 -2.045,-3.695 0,0 -0.341,1.763 0.391,2.842 0.73,1.078 1.654,0.853 1.654,0.853" /><path
       inkscape:connector-curvature="0"
       id="path1098"
       style="fill:#1d3b54;fill-opacity:1;fill-rule:nonzero;stroke:none;stroke-width:0.1"
       d="m 396.279,163.626 c 0.377,1.405 0.653,2.776 0.849,4.094 0,0 0.91,1.936 1.217,2.86 0.307,0.924 2.592,12.291 2.592,12.291 0,0 2.417,-10.675 -4.658,-19.245" /><path
       inkscape:connector-curvature="0"
       id="path1100"
       style="fill:#eea886;fill-opacity:1;fill-rule:nonzero;stroke:none;stroke-width:0.1"
       d="m 386.119,162.966 c 0,0 -1.78,-1.767 -2.356,-1.945 -0.575,-0.178 -1.684,0.802 -5.771,1.105 -0.359,0.027 -0.99,-0.296 -0.841,-0.77 0.148,-0.474 1.927,-1.764 2.688,-1.961 0.762,-0.196 4.353,-1.623 6.103,-0.923 1.75,0.7 2.941,2.928 2.941,2.928 l -2.764,1.566" /><path
       inkscape:connector-curvature="0"
       id="path1102"
       style="fill:#285173;fill-opacity:1;fill-rule:nonzero;stroke:none;stroke-width:0.1"
       d="m 399.943,198.397 c 0,0 -4.726,-1.873 -5.006,-8.441 -0.279,-6.569 -0.536,-9.998 -0.793,-11.012 -0.256,-1.014 -0.747,-5.089 -1.936,-7.541 -1.154,-2.379 -8.727,-9.907 -8.727,-9.907 l 3.665,-3.447 c 0,0 10.558,10.594 11.199,12.531 0.641,1.937 3.28,15.416 3.491,17.688 0.169,1.832 2.585,9.993 -1.893,10.129" /><path
       inkscape:connector-curvature="0"
       id="path1104"
       style="fill:#f8f8f8;fill-opacity:1;fill-rule:nonzero;stroke:none;stroke-width:0.1"
       d="m 311.551,136.814 c -9.804,0 -18.899,3.035 -26.397,8.217 h 52.794 c -7.498,-5.182 -16.592,-8.217 -26.397,-8.217" /><path
       inkscape:connector-curvature="0"
       id="path1106"
       style="fill:#dadada;fill-opacity:1;fill-rule:nonzero;stroke:none;stroke-width:0.1"
       d="m 337.948,145.031 h -52.794 c -10.504,7.259 -17.874,18.73 -19.666,31.973 h 2.594 c 0.733,-5.104 2.343,-9.926 4.674,-14.306 h 0.001 c 0.994,5.268 2.339,10.019 3.965,14.306 h 80.892 c -1.792,-13.243 -9.162,-24.714 -19.666,-31.973" /><g
       id="g1108"
       transform="scale(0.1)"><g
         clip-path="url(#clipPath1114)"
         id="g1110"><path
           inkscape:connector-curvature="0"
           id="path1122"
           style="fill:url(#linearGradient1120);fill-opacity:1;fill-rule:nonzero;stroke:none"
           d="m 3576.14,1770.04 h -808.92 c 30.35,80.04 70.5,143.84 115.96,194.66 h 133.06 v 28.4 h -105.76 c 44.19,42.77 92.23,74.8 140.49,98.72 l 54.41,-11.79 c -0.21,-3.74 0.08,-7.57 0.91,-11.4 4.34,-20.02 22.11,-33.74 41.81,-33.74 2.99,0 6.02,0.32 9.06,0.97 23.06,5 37.76,27.82 32.76,50.87 -1.5,6.95 -4.62,13.14 -8.88,18.26 l 37.03,42.23 c 55.08,10.55 103.59,13.17 138.2,13.17 34.17,0 54.79,-2.55 54.79,-2.55 v 0 0 c -34.36,31.28 -73.71,57.18 -116.71,76.38 l 17.69,20.17 c 158.51,-74.05 268.33,-234.89 268.33,-421.4 0,-21.34 -1.45,-42.37 -4.23,-62.95 m -298.84,311.42 v -28.4 h 147.5 v 28.4 h -147.5 m -596.48,-311.42 h -25.94 c -2.78,20.58 -4.23,41.61 -4.23,62.95 0,206.41 134.52,381.39 320.68,442.06 v -18.87 h 26.35 c -153,-42.51 -272.38,-165.76 -309.38,-320.97 l -25.19,-23.77 9.27,-9.82 11.06,10.43 c -4.66,-25.64 -7.1,-52.07 -7.1,-79.06 0,-21.37 1.53,-42.39 4.48,-62.95 m 427.44,323.19 -37.24,8.07 c 42.75,19.25 85.31,32.43 125.07,41.35 l -25.22,-28.76 c -6.7,4.21 -14.55,6.58 -22.75,6.58 -2.99,0 -6.03,-0.31 -9.07,-0.97 -14.53,-3.15 -25.73,-13.37 -30.79,-26.27 m 173.02,146.57 c -50.19,20.48 -105,31.93 -162.45,32.35 v 12.44 h -114.01 c 35.47,8.66 72.55,13.26 110.69,13.26 65.22,0 127.3,-13.43 183.63,-37.68 l -17.86,-20.37" /></g></g><path
       inkscape:connector-curvature="0"
       id="path1124"
       style="fill:#55b0f8;fill-opacity:1;fill-rule:nonzero;stroke:none;stroke-width:0.1"
       d="m 267.238,190.162 -0.927,0.982 2.519,2.377 c -0.182,-0.764 -0.344,-1.536 -0.486,-2.316 l -1.106,-1.043 m 43.3,17.841 -5.441,1.179 c 0.668,0.331 1.337,0.647 2.005,0.948 l 3.724,-0.807 c -0.164,-0.417 -0.263,-0.862 -0.288,-1.32 m 7.566,2.496 c -0.291,0.35 -0.635,0.65 -1.017,0.89 l 2.522,2.876 c 0.743,0.167 1.475,0.319 2.198,0.457 l -3.703,-4.223 m 11.331,12.923 c -0.432,0.193 -0.868,0.379 -1.307,0.558 l 1.786,2.037 c 0.433,-0.186 0.863,-0.379 1.29,-0.578 l -1.769,-2.017" /><path
       inkscape:connector-curvature="0"
       id="path1126"
       style="fill:#f8f8f8;fill-opacity:1;fill-rule:nonzero;stroke:none;stroke-width:0.1"
       d="m 314.81,204.841 c -1.348,0 -2.564,0.939 -2.86,2.308 -0.342,1.577 0.663,3.139 2.241,3.48 0.208,0.045 0.415,0.067 0.62,0.067 1.348,0 2.564,-0.939 2.86,-2.308 0.342,-1.578 -0.663,-3.139 -2.241,-3.48 -0.208,-0.045 -0.415,-0.067 -0.62,-0.067" /><path
       inkscape:connector-curvature="0"
       id="path1128"
       style="fill:#55b0f8;fill-opacity:1;fill-rule:nonzero;stroke:none;stroke-width:0.1"
       d="m 314.81,203.489 c -1.97,0 -3.747,1.372 -4.181,3.374 -0.083,0.383 -0.112,0.766 -0.091,1.14 0.025,0.458 0.124,0.903 0.288,1.32 0.506,1.29 1.626,2.312 3.079,2.627 0.304,0.066 0.608,0.097 0.907,0.097 0.82,0 1.605,-0.237 2.275,-0.658 0.382,-0.24 0.726,-0.54 1.017,-0.89 0.426,-0.512 0.738,-1.131 0.888,-1.826 0.5,-2.305 -0.97,-4.587 -3.276,-5.087 -0.304,-0.065 -0.607,-0.097 -0.906,-0.097 m 10e-4,7.207 c -0.205,0 -0.412,-0.022 -0.62,-0.067 -1.578,-0.341 -2.583,-1.903 -2.241,-3.48 0.296,-1.369 1.512,-2.308 2.86,-2.308 0.205,0 0.412,0.022 0.62,0.067 1.578,0.341 2.583,1.902 2.241,3.48 -0.296,1.369 -1.512,2.308 -2.86,2.308" /><path
       inkscape:connector-curvature="0"
       id="path1130"
       style="fill:#dcdcdc;fill-opacity:1;fill-rule:nonzero;stroke:none;stroke-width:0.1"
       d="m 301.624,196.47 h -13.306 c 0.891,0.996 1.802,1.942 2.73,2.84 h 10.576 v -2.84" /><path
       inkscape:connector-curvature="0"
       id="path1132"
       style="fill:#dcdcdc;fill-opacity:1;fill-rule:nonzero;stroke:none;stroke-width:0.1"
       d="m 299.768,225.618 h -2.635 v 1.887 c 1.099,0.359 2.215,0.677 3.349,0.954 h 11.401 v -1.244 c -0.111,0.001 -0.221,0.001 -0.332,0.001 -4.081,0 -8.033,-0.557 -11.783,-1.598" /><path
       inkscape:connector-curvature="0"
       id="path1134"
       style="fill:#dcdcdc;fill-opacity:1;fill-rule:nonzero;stroke:none;stroke-width:0.1"
       d="m 327.73,205.306 h 14.75 v 2.84023 h -14.75 z" /><path
       inkscape:connector-curvature="0"
       id="path1136"
       style="fill:#c1c7d3;fill-opacity:1;fill-rule:nonzero;stroke:none;stroke-width:0.1"
       d="m 272.757,162.698 h -0.001 c -2.331,4.38 -3.941,9.202 -4.674,14.306 h 8.64 c -1.626,-4.287 -2.971,-9.038 -3.965,-14.306" /><g
       id="g1138"
       transform="scale(0.1)"><g
         clip-path="url(#clipPath1144)"
         id="g1140"><path
           inkscape:connector-curvature="0"
           id="path1152"
           style="fill:url(#linearGradient1150);fill-opacity:1;fill-rule:nonzero;stroke:none"
           d="m 2767.22,1770.04 h -86.4 c -2.95,20.56 -4.48,41.58 -4.48,62.95 0,26.99 2.44,53.42 7.1,79.06 l 193.47,182.55 c 7.63,-6.54 17.48,-10.35 27.86,-10.35 2.99,0 6.03,0.31 9.07,0.97 15.69,3.39 27.5,15.04 31.88,29.41 l 105.25,-22.81 c -48.26,-23.92 -96.3,-55.95 -140.49,-98.72 h -41.74 v -28.4 h 14.44 c -45.46,-50.82 -85.61,-114.62 -115.96,-194.66 m -78.92,165.17 c 37,155.21 156.38,278.46 309.38,320.97 h 121.15 v 15.97 c 57.45,-0.42 112.26,-11.87 162.45,-32.35 l -85.19,-97.15 c -39.76,-8.92 -82.32,-22.1 -125.07,-41.35 l -123.46,26.75 c -0.06,2.66 -0.38,5.35 -0.96,8.04 -4.34,20.02 -22.11,33.74 -41.81,33.74 -2.99,0 -6.02,-0.32 -9.06,-0.98 -23.06,-4.99 -37.76,-27.81 -32.76,-50.87 1.03,-4.74 2.81,-9.13 5.19,-13.07 l -179.86,-169.7 m 529.77,212.01 76.28,87 c 43,-19.2 82.35,-45.1 116.71,-76.38 0,0 -20.62,2.55 -54.79,2.55 -34.61,0 -83.12,-2.62 -138.2,-13.17" /></g></g><path
       inkscape:connector-curvature="0"
       id="path1154"
       style="fill:#64a9e8;fill-opacity:1;fill-rule:nonzero;stroke:none;stroke-width:0.1"
       d="m 268.344,191.205 c 0.142,0.78 0.304,1.552 0.486,2.316 l 17.986,16.97 c 0.237,-0.392 0.534,-0.739 0.875,-1.031 l -19.347,-18.255 m 36.753,17.977 -10.525,2.281 c 0.131,0.428 0.195,0.88 0.184,1.342 l 12.346,-2.675 c -0.668,-0.301 -1.337,-0.617 -2.005,-0.948 m 14.512,5.083 8.519,9.715 c 0.439,-0.179 0.875,-0.365 1.307,-0.558 l -7.628,-8.7 c -0.723,-0.138 -1.455,-0.29 -2.198,-0.457" /><path
       inkscape:connector-curvature="0"
       id="path1156"
       style="fill:#d6dce8;fill-opacity:1;fill-rule:nonzero;stroke:none;stroke-width:0.1"
       d="m 290.478,209.776 c -1.348,0 -2.564,0.938 -2.861,2.307 -0.341,1.579 0.664,3.14 2.242,3.482 0.208,0.045 0.415,0.066 0.619,0.066 1.348,0 2.565,-0.938 2.861,-2.308 0.342,-1.577 -0.664,-3.139 -2.241,-3.481 -0.208,-0.045 -0.416,-0.066 -0.62,-0.066" /><path
       inkscape:connector-curvature="0"
       id="path1158"
       style="fill:#64a9e8;fill-opacity:1;fill-rule:nonzero;stroke:none;stroke-width:0.1"
       d="m 290.477,208.425 c -1.038,0 -2.023,0.381 -2.786,1.035 -0.341,0.292 -0.638,0.639 -0.875,1.031 -0.238,0.394 -0.416,0.833 -0.519,1.307 -0.5,2.306 0.97,4.588 3.276,5.087 0.304,0.066 0.607,0.098 0.906,0.098 1.97,0 3.747,-1.372 4.181,-3.374 0.058,-0.269 0.09,-0.538 0.096,-0.804 0.011,-0.462 -0.053,-0.914 -0.184,-1.342 -0.438,-1.437 -1.619,-2.602 -3.188,-2.941 -0.304,-0.066 -0.608,-0.097 -0.907,-0.097 m 0.001,7.206 c -0.204,0 -0.411,-0.021 -0.619,-0.066 -1.578,-0.342 -2.583,-1.903 -2.242,-3.482 0.297,-1.369 1.513,-2.307 2.861,-2.307 0.204,0 0.412,0.021 0.62,0.066 1.577,0.342 2.583,1.904 2.241,3.481 -0.296,1.37 -1.513,2.308 -2.861,2.308" /><path
       inkscape:connector-curvature="0"
       id="path1160"
       style="fill:#c2c8d4;fill-opacity:1;fill-rule:nonzero;stroke:none;stroke-width:0.1"
       d="m 288.318,196.47 h -1.444 v 2.84 h 4.174 c -0.928,-0.898 -1.839,-1.844 -2.73,-2.84" /><path
       inkscape:connector-curvature="0"
       id="path1162"
       style="fill:#c2c8d4;fill-opacity:1;fill-rule:nonzero;stroke:none;stroke-width:0.1"
       d="m 311.883,225.618 h -12.115 c 3.75,1.041 7.702,1.598 11.783,1.598 0.111,0 0.221,0 0.332,-0.001 v -1.597" /><path
       inkscape:connector-curvature="0"
       id="path1164"
       style="fill:#3f444f;fill-opacity:1;fill-rule:nonzero;stroke:none;stroke-width:0.1"
       d="m 311.549,139.31 c -24.294,0 -43.988,19.692 -43.988,43.989 0,24.293 19.694,43.988 43.988,43.988 24.294,0 43.988,-19.695 43.988,-43.988 0,-24.297 -19.694,-43.989 -43.988,-43.989 z m 0,96.531 c -29.02,0 -52.545,-23.524 -52.545,-52.542 0,-29.021 23.525,-52.546 52.545,-52.546 29.02,0 52.544,23.525 52.544,52.546 0,29.018 -23.524,52.542 -52.544,52.542" /><path
       inkscape:connector-curvature="0"
       id="path1166"
       style="fill:#e0e0e0;fill-opacity:1;fill-rule:nonzero;stroke:none;stroke-width:0.1"
       d="m 165.74,336.152 h -30.464 v 3.119 h 30.464 v -3.119" /><path
       inkscape:connector-curvature="0"
       id="path1168"
       style="fill:#e0e0e0;fill-opacity:1;fill-rule:nonzero;stroke:none;stroke-width:0.1"
       d="m 193.293,336.152 h -21.626 v 3.119 h 21.626 v -3.119" /><path
       inkscape:connector-curvature="0"
       id="path1170"
       style="fill:#e0e0e0;fill-opacity:1;fill-rule:nonzero;stroke:none;stroke-width:0.1"
       d="m 191.86,324.408 h -20.193 v 3.119 h 20.193 v -3.119" /><path
       inkscape:connector-curvature="0"
       id="path1172"
       style="fill:#78c2ff;fill-opacity:1;fill-rule:nonzero;stroke:none;stroke-width:0.1"
       d="m 301.625,336.152 h -21.627 v 3.119 h 21.627 v -3.119" /><path
       inkscape:connector-curvature="0"
       id="path1174"
       style="fill:#1487e3;fill-opacity:1;fill-rule:nonzero;stroke:none;stroke-width:0.1"
       d="m 226.668,336.152 h -27.552 v 3.119 h 27.552 v -3.119" /><path
       inkscape:connector-curvature="0"
       id="path1176"
       style="fill:#ffc055;fill-opacity:1;fill-rule:nonzero;stroke:none;stroke-width:0.1"
       d="m 274.6,336.152 h -27.553 v 3.119 H 274.6 v -3.119" /><path
       inkscape:connector-curvature="0"
       id="path1178"
       style="fill:#e0e0e0;fill-opacity:1;fill-rule:nonzero;stroke:none;stroke-width:0.1"
       d="m 241.849,336.152 h -10.086 v 3.119 h 10.086 v -3.119" /><path
       inkscape:connector-curvature="0"
       id="path1180"
       style="fill:#78c2ff;fill-opacity:1;fill-rule:nonzero;stroke:none;stroke-width:0.1"
       d="m 151.054,324.408 h -15.778 v 3.119 h 15.778 v -3.119" /><path
       inkscape:connector-curvature="0"
       id="path1182"
       style="fill:#1487e3;fill-opacity:1;fill-rule:nonzero;stroke:none;stroke-width:0.1"
       d="m 160.022,324.408 h -5.095 v 3.119 h 5.095 v -3.119" /><path
       inkscape:connector-curvature="0"
       id="path1184"
       style="fill:#e0e0e0;fill-opacity:1;fill-rule:nonzero;stroke:none;stroke-width:0.1"
       d="m 301.625,324.408 h -42.11 v 3.119 h 42.11 v -3.119" /><path
       inkscape:connector-curvature="0"
       id="path1186"
       style="fill:#ffc455;fill-opacity:1;fill-rule:nonzero;stroke:none;stroke-width:0.1"
       d="m 168.963,324.408 h -5.198 v 3.119 h 5.198 v -3.119" /><path
       inkscape:connector-curvature="0"
       id="path1188"
       style="fill:#1487e3;fill-opacity:1;fill-rule:nonzero;stroke:none;stroke-width:0.1"
       d="m 255.625,324.408 h -13.776 v 3.119 h 13.776 v -3.119" /><path
       inkscape:connector-curvature="0"
       id="path1190"
       style="fill:#78c2ff;fill-opacity:1;fill-rule:nonzero;stroke:none;stroke-width:0.1"
       d="m 238.202,324.408 h -29.313 v 3.119 h 29.313 v -3.119" /><path
       inkscape:connector-curvature="0"
       id="path1192"
       style="fill:#e0e0e0;fill-opacity:1;fill-rule:nonzero;stroke:none;stroke-width:0.1"
       d="m 204.73,324.408 h -10.085 v 3.119 h 10.085 v -3.119" /><path
       inkscape:connector-curvature="0"
       id="path1194"
       style="fill:#16202e;fill-opacity:1;fill-rule:nonzero;stroke:none;stroke-width:0.1"
       d="m 314.585,441.58 c 0,0 -4.773,-2.335 -3.593,-8.689 1.18,-6.352 1.703,-7.208 0.383,-9.69 -1.321,-2.483 -2.879,-13.073 -1.691,-15.079 1.189,-2.007 14.709,8.82 16.584,17.904 1.875,9.084 -1.188,13.124 -2.271,14.629 -1.083,1.506 -5.197,3.063 -9.412,0.925" /><path
       inkscape:connector-curvature="0"
       id="path1196"
       style="fill:#eea987;fill-opacity:1;fill-rule:nonzero;stroke:none;stroke-width:0.1"
       d="m 315.643,337 0.751,-0.905 3.024,2.803 -0.672,0.951 -3.103,-2.849" /><path
       inkscape:connector-curvature="0"
       id="path1198"
       style="fill:#3f444f;fill-opacity:1;fill-rule:nonzero;stroke:none;stroke-width:0.1"
       d="m 316.394,336.095 c 0,0 -0.787,-4.784 -1.406,-5.405 -0.618,-0.621 -3.782,-3.94 -3.071,-4.825 0.71,-0.884 7.626,3.967 8.614,5.705 0.989,1.738 3.007,2.044 3.322,3.798 0.315,1.755 -4.435,3.53 -4.435,3.53 l -3.024,-2.803" /><path
       inkscape:connector-curvature="0"
       id="path1200"
       style="fill:#dbdff0;fill-opacity:1;fill-rule:nonzero;stroke:none;stroke-width:0.1"
       d="m 313.658,381.971 c 0,0 -19.263,-19.48 -19.369,-21.962 -0.106,-2.482 20.941,-22.922 21.152,-23.661 l 3.684,3.501 c 0,0 -9.362,13.294 -12.213,16.146 -2.675,2.674 -4.437,4.067 -4.437,4.067 0,0 22.917,8.582 24.607,10.905 1.69,2.324 3.49,6.417 1.589,10.141 -1.901,3.724 -15.013,0.863 -15.013,0.863" /><path
       inkscape:connector-curvature="0"
       id="path1202"
       style="fill:#dbdff0;fill-opacity:1;fill-rule:nonzero;stroke:none;stroke-width:0.1"
       d="m 312.48,369.409 h -25.294 c 0,0 1.112,-3.484 1.609,-7.234 0.497,-3.68 1.9,-23.394 1.9,-23.394 l -5.016,-1.429 c 0.634,2.217 -6.848,32.245 -7.182,33.615 -0.95,3.938 4.16,4.571 9.57,7.37 5.59,2.885 19.372,6.3 19.372,6.3 19.859,0.06 5.041,-15.228 5.041,-15.228" /><path
       inkscape:connector-curvature="0"
       id="path1204"
       style="fill:#eea987;fill-opacity:1;fill-rule:nonzero;stroke:none;stroke-width:0.1"
       d="m 286.395,337.554 0.051,-1.206 3.961,1.146 -0.174,1.152 -3.838,-1.092" /><path
       inkscape:connector-curvature="0"
       id="path1206"
       style="fill:#3f444f;fill-opacity:1;fill-rule:nonzero;stroke:none;stroke-width:0.1"
       d="m 286.446,336.348 c 0,0 -2.852,-3.921 -3.684,-4.198 -0.831,-0.277 -5.149,-1.822 -4.911,-2.932 0.237,-1.109 8.595,0.119 10.259,1.229 1.663,1.108 3.604,0.474 4.674,1.9 1.07,1.427 -2.377,5.147 -2.377,5.147 l -3.961,-1.146" /><path
       inkscape:connector-curvature="0"
       id="path1208"
       style="fill:#eea987;fill-opacity:1;fill-rule:nonzero;stroke:none;stroke-width:0.1"
       d="m 315.261,419.362 c 0,0 -4.058,-1.238 -5.484,-6.011 -0.675,-2.258 -3.763,-13.151 -4.635,-14.022 -0.871,-0.872 -11.922,-7.487 -11.922,-7.487 l 1.307,-2.337 c 0,0 13.705,6.338 14.18,6.971 0.476,0.635 5.459,12.161 5.878,13.864 0.42,1.703 4.299,11.152 0.676,9.022" /><path
       inkscape:connector-curvature="0"
       id="path1210"
       style="fill:#eea987;fill-opacity:1;fill-rule:nonzero;stroke:none;stroke-width:0.1"
       d="m 315.278,440.875 c 0,0 -6.932,-2.178 -3.169,-14.141 3.763,-11.962 13.23,1.387 12.24,8.675 -0.991,7.288 -9.071,5.466 -9.071,5.466" /><path
       inkscape:connector-curvature="0"
       id="path1212"
       style="fill:#1a598c;fill-opacity:1;fill-rule:nonzero;stroke:none;stroke-width:0.1"
       d="m 322.729,420.678 c 0,0 7.289,-3.05 9.11,-6.773 1.823,-3.724 -1.861,-10.457 -2.653,-12.794 -0.792,-2.337 -2.258,-7.645 -1.941,-10.299 0.317,-2.653 1.267,-8.041 1.426,-9.704 0,0 -15.25,-1.268 -21.231,3.525 0,0 3.961,3.05 4.278,6.615 0.317,3.565 -0.634,7.843 -0.872,8.318 -0.238,0.475 -3.565,3.406 -2.733,6.219 0.832,2.812 2.099,9.702 4.073,11.612 1.908,1.846 4.403,2.806 4.403,2.806 l 6.14,0.475" /><path
       inkscape:connector-curvature="0"
       id="path1214"
       style="fill:#eea987;fill-opacity:1;fill-rule:nonzero;stroke:none;stroke-width:0.1"
       d="m 327.126,416.004 c -0.691,-0.675 -2.654,-2.535 -0.317,-7.723 2.337,-5.19 6.734,-12.042 6.853,-12.992 0.118,-0.952 6.601,-20.316 6.76,-20.712 0.159,-0.397 2.818,-0.094 2.818,-0.094 0,0 -3.874,19.243 -4.271,21.45 0,0 -6.575,25.221 -11.843,20.071" /><path
       inkscape:connector-curvature="0"
       id="path1216"
       style="fill:#eea987;fill-opacity:1;fill-rule:nonzero;stroke:none;stroke-width:0.1"
       d="m 343.115,374.577 c 0,0 2.509,-1.902 3.01,-1.981 0.502,-0.079 5.203,-1.136 5.652,-0.95 0.449,0.185 1.003,-1.004 -0.476,-0.925 -1.478,0.079 -6.971,0.027 -8.45,0.158 -1.478,0.133 -3.116,-2.428 -3.67,-2.402 -0.555,0.026 -0.475,0.766 0.317,2.165 0.792,1.399 1.551,2.172 0.924,3.935 -0.628,1.762 2.693,0 2.693,0" /><path
       inkscape:connector-curvature="0"
       id="path1218"
       style="fill:#eea987;fill-opacity:1;fill-rule:nonzero;stroke:none;stroke-width:0.1"
       d="m 293.22,391.842 c 0,0 -1.704,-0.277 -2.456,0.317 -0.753,0.594 -3.135,1.501 -3.135,1.501 l 3.372,-5.977 c 0,0 3.169,1.189 3.526,1.822 0.356,0.634 -1.307,2.337 -1.307,2.337" /><path
       inkscape:connector-curvature="0"
       id="path1220"
       style="fill:#434343;fill-opacity:1;fill-rule:nonzero;stroke:none;stroke-width:0.1"
       d="m 291.324,387.4 -0.824,-0.476 -5.683,9.845 0.823,0.476 5.684,-9.845" /><path
       inkscape:connector-curvature="0"
       id="path1222"
       style="fill:#eea987;fill-opacity:1;fill-rule:nonzero;stroke:none;stroke-width:0.1"
       d="m 287.417,392.265 c 0,0 -0.737,-3.977 2.711,-4.695 l -2.711,4.695" /><path
       inkscape:connector-curvature="0"
       id="path1224"
       style="fill:#eea987;fill-opacity:1;fill-rule:nonzero;stroke:none;stroke-width:0.1"
       d="m 322.727,420.675 c 0.051,-2.679 -3.142,-7.113 -5.744,-6.112 -2.602,1.002 -0.394,5.642 -0.394,5.642 l 0.805,0.298 c -0.017,0.163 -0.077,0.361 -0.145,0.557 -0.18,0.463 -0.454,0.916 -0.454,0.916 0,0 6.677,8.86 5.855,5.676 -0.814,-3.185 0.077,-6.977 0.077,-6.977" /><path
       inkscape:connector-curvature="0"
       id="path1226"
       style="fill:#16202e;fill-opacity:1;fill-rule:nonzero;stroke:none;stroke-width:0.1"
       d="m 311.401,433.895 c 0,0 3.444,-3.38 9.208,-3.803 0,0 1.951,-2.307 2.121,-3.327 0,0 5.407,8.477 -0.915,13.731 -6.321,5.256 -12.738,-4.436 -10.414,-6.601" /><path
       inkscape:connector-curvature="0"
       id="path1228"
       style="fill:#eea987;fill-opacity:1;fill-rule:nonzero;stroke:none;stroke-width:0.1"
       d="m 320.617,430.383 c 0.044,0.871 0.581,2.852 1.875,2.297 1.294,-0.555 -0.079,-4.589 -0.938,-4.341 0,0 -1.043,-0.016 -0.937,2.044" /><path
       inkscape:connector-curvature="0"
       id="path1230"
       style="fill:#a1725b;fill-opacity:1;fill-rule:nonzero;stroke:none;stroke-width:0.1"
       d="m 321.066,425.084 c 0,0 -0.976,-3.347 -3.817,-4.024 -0.18,0.463 -0.454,0.916 -0.454,0.916 0,0 1.857,0.009 4.271,3.108" /><path
       inkscape:connector-curvature="0"
       id="path1232"
       style="fill:#b5b9c7;fill-opacity:1;fill-rule:nonzero;stroke:none;stroke-width:0.1"
       d="m 310.375,378.611 -8.68,-9.202 h -3.193 z" /></g></svg>